<svg width="117" height="116" viewBox="0 0 117 116" fill="none" xmlns="http://www.w3.org/2000/svg">
<path d="M36.5854 46.5635V47.3775" stroke="white" stroke-width="6" stroke-linecap="round" stroke-linejoin="round"/>
<path d="M36.5854 50.4717V71.9667" stroke="white" stroke-width="6" stroke-linecap="round" stroke-linejoin="round" stroke-dasharray="6 12"/>
<path d="M36.5854 73.4315V74.2455M61.0114 46.5635V47.3775" stroke="white" stroke-width="6" stroke-linecap="round" stroke-linejoin="round"/>
<path d="M61.0117 50.4717V71.9667" stroke="white" stroke-width="6" stroke-linecap="round" stroke-linejoin="round" stroke-dasharray="6 12"/>
<path d="M61.0125 73.4315V74.2455M41.4715 64.4755H56.1265M46.3605 69.3635H56.1305M64.2726 60.4075C64.2726 57.8025 65.2495 55.5225 66.7155 54.8715C67.2045 54.5455 67.6926 53.8945 67.5296 53.4055V49.0055C67.5148 48.3616 67.252 47.7483 66.7962 47.2934C66.3403 46.8384 65.7264 46.577 65.0826 46.5635H32.5155C31.8722 46.578 31.2592 46.84 30.8041 47.2951C30.3491 47.7501 30.0871 48.3631 30.0725 49.0065V53.4065C30.0698 53.7229 30.1421 54.0354 30.2836 54.3184C30.4251 54.6015 30.6318 54.8469 30.8865 55.0345C32.3525 55.5235 33.3295 57.8025 33.3295 60.4085C33.3295 63.0145 32.3525 65.2935 30.8865 65.9445C30.3975 66.2705 29.9095 66.9215 30.0725 67.4105V71.3185C30.0263 71.6612 30.0488 72.0096 30.1389 72.3435C30.2289 72.6774 30.3846 72.9899 30.597 73.2628C30.8093 73.5358 31.0739 73.7636 31.3753 73.933C31.6768 74.1025 32.009 74.21 32.3525 74.2495H65.2456C65.8889 74.235 66.5019 73.9729 66.957 73.5179C67.412 73.0628 67.674 72.4498 67.6885 71.8065V67.4065C67.7108 67.1093 67.6456 66.8122 67.501 66.5517C67.3563 66.2911 67.1385 66.0787 66.8745 65.9405C65.2465 65.2895 64.2696 63.0095 64.2696 60.4045L64.2726 60.4075Z" stroke="white" stroke-width="6" stroke-linecap="round" stroke-linejoin="round"/>
<path d="M53.6833 55.0316L51.4033 59.5906L48.7983 60.4046L49.6123 56.1706L41.4703 58.7766V57.1486L39.8423 54.7056L40.6563 53.7286L42.4473 54.8686C42.6489 55.0342 42.8866 55.1501 43.1413 55.2067C43.396 55.2634 43.6605 55.2592 43.9133 55.1946L54.3353 51.6116C55.4753 51.1226 57.7553 51.7746 57.7553 52.9116C57.7553 53.5626 57.2663 53.8886 56.6153 54.2116L53.6843 55.0256L53.6833 55.0316Z" stroke="white" stroke-width="6" stroke-linecap="round" stroke-linejoin="round"/>
<path d="M27.3816 89.0516H33.4816C34.2377 89.0505 34.9625 88.7497 35.4971 88.2151C36.0318 87.6805 36.3326 86.9557 36.3336 86.1996V80.0996C36.3323 79.3437 36.0314 78.6192 35.4968 78.0847C34.9622 77.5503 34.2375 77.2497 33.4816 77.2486H27.3816C26.6256 77.2497 25.9008 77.5505 25.3661 78.0851C24.8315 78.6197 24.5307 79.3445 24.5296 80.1006V86.2006C24.531 86.9565 24.8319 87.681 25.3665 88.2155C25.9011 88.7499 26.6257 89.0505 27.3816 89.0516ZM27.4816 80.1996H33.3816V86.0996H27.4816V80.1996ZM71.1676 78.8306C75.0798 78.8281 78.87 77.4693 81.8926 74.9856C84.9152 72.502 86.9831 69.0471 87.744 65.2097C88.505 61.3723 87.9118 57.3898 86.0657 53.9407C84.2195 50.4916 81.2346 47.7893 77.6194 46.2942C74.0043 44.7991 69.9826 44.6037 66.2395 45.7414C62.4965 46.879 59.2637 49.2793 57.0919 52.5333C54.9202 55.7872 53.9438 59.6935 54.3293 63.5866C54.7147 67.4796 56.438 71.1187 59.2056 73.8836C60.7769 75.4534 62.6421 76.6982 64.6945 77.547C66.747 78.3958 68.9466 78.832 71.1676 78.8306ZM71.0016 61.0206H57.2396C57.3713 58.9495 57.9633 56.9339 58.9726 55.1206H71.0016C71.393 55.1206 71.7683 54.9651 72.045 54.6884C72.3217 54.4117 72.4771 54.0364 72.4771 53.6451C72.4771 53.2538 72.3217 52.8785 72.045 52.6018C71.7683 52.3251 71.393 52.1696 71.0016 52.1696H61.1746C61.2146 52.1286 61.2516 52.0866 61.2916 52.0466C62.5886 50.7496 64.1283 49.7207 65.8228 49.0188C67.5174 48.3168 69.3336 47.9555 71.1678 47.9555C73.002 47.9554 74.8182 48.3166 76.5128 49.0185C78.2074 49.7204 79.7471 50.7492 81.0441 52.0461C82.3411 53.343 83.37 54.8827 84.0719 56.5773C84.7739 58.2718 85.1352 60.0881 85.1353 61.9222C85.1353 63.7564 84.7741 65.5727 84.0722 67.2673C83.3703 68.9618 82.3416 70.5016 81.0446 71.7986C79.216 73.6294 76.9145 74.916 74.397 75.5145C71.8796 76.1131 69.2453 76.0001 66.7883 75.1882C64.3314 74.3763 62.1485 72.8974 60.4833 70.9167C58.8182 68.9361 57.7363 66.5315 57.3586 63.9716H71.0016C71.393 63.9716 71.7683 63.8161 72.045 63.5394C72.3217 63.2627 72.4771 62.8874 72.4771 62.4961C72.4771 62.1048 72.3217 61.7295 72.045 61.4528C71.7683 61.176 71.393 61.0206 71.0016 61.0206ZM38.2286 24.5186C37.9369 24.5186 37.6517 24.6051 37.4092 24.7672C37.1666 24.9293 36.9776 25.1596 36.8659 25.4291C36.7543 25.6987 36.7251 25.9952 36.782 26.2814C36.8389 26.5675 36.9794 26.8303 37.1857 27.0366C37.3919 27.2429 37.6548 27.3833 37.9409 27.4403C38.227 27.4972 38.5236 27.468 38.7931 27.3563C39.0626 27.2447 39.293 27.0556 39.4551 26.8131C39.6171 26.5705 39.7036 26.2853 39.7036 25.9936C39.7036 25.7999 39.6655 25.6081 39.5914 25.4291C39.5172 25.2502 39.4086 25.0876 39.2716 24.9506C39.1347 24.8136 38.9721 24.705 38.7931 24.6309C38.6141 24.5568 38.4223 24.5186 38.2286 24.5186ZM42.6546 65.4476C42.6546 65.8388 42.81 66.214 43.0867 66.4906C43.3633 66.7672 43.7384 66.9226 44.1296 66.9226H48.9576C49.7657 70.4979 51.4244 73.8255 53.793 76.6229C56.1615 79.4204 59.17 81.6051 62.5631 82.9916C65.9563 84.3782 69.6338 84.9256 73.2837 84.5876C76.9335 84.2495 80.4479 83.0358 83.5286 81.0496L85.6346 83.1556C85.2809 83.5637 85.0945 84.0905 85.1131 84.6302C85.1316 85.17 85.3537 85.6828 85.7346 86.0656L98.9346 99.2656C100.204 100.535 101.926 101.249 103.722 101.249C105.518 101.249 107.24 100.535 108.51 99.2656C109.779 97.9959 110.493 96.2738 110.493 94.4781C110.493 92.6824 109.779 90.9603 108.51 89.6906L95.3096 76.4906C94.9268 76.1096 94.414 75.8876 93.8743 75.869C93.3345 75.8505 92.8077 76.0368 92.3996 76.3906L90.2936 74.2846C93.3458 69.5617 94.5426 63.8765 93.6536 58.3239C92.7646 52.7713 89.8527 47.744 85.4786 44.21C81.1044 40.6761 75.5775 38.8855 69.962 39.183C64.3466 39.4806 59.0398 41.8452 55.0636 45.8216C54.9156 45.9696 54.7703 46.1193 54.6276 46.2706H44.1276C43.7363 46.2706 43.361 46.4261 43.0843 46.7028C42.8076 46.9795 42.6521 47.3548 42.6521 47.7461C42.6521 48.1374 42.8076 48.5127 43.0843 48.7894C43.361 49.0661 43.7363 49.2216 44.1276 49.2216H52.2646C49.3543 53.5618 48.024 58.7704 48.4966 63.9746H44.1306C43.7394 63.9746 43.3643 64.13 43.0877 64.4066C42.811 64.6832 42.6556 65.0584 42.6556 65.4496L42.6546 65.4476ZM93.4376 79.5156L93.7966 79.1566L106.423 91.7756C107.105 92.4985 107.478 93.4588 107.463 94.4525C107.449 95.4463 107.048 96.3953 106.345 97.098C105.642 97.8008 104.693 98.202 103.7 98.2165C102.706 98.2309 101.746 97.8576 101.023 97.1756L88.3986 84.5546L93.4376 79.5156ZM90.3096 78.4706L87.7156 81.0646L85.9216 79.2696C86.3836 78.8756 86.8333 78.4609 87.2706 78.0256C87.708 77.5903 88.1226 77.1406 88.5146 76.6766L90.3096 78.4706ZM57.1516 47.9056C60.3925 44.6847 64.6494 42.6863 69.1978 42.2507C73.7462 41.8151 78.305 42.9692 82.0983 45.5165C85.8915 48.0638 88.6848 51.8469 90.0028 56.2219C91.3207 60.5969 91.0818 65.2934 89.3267 69.5121C87.5716 73.7308 84.4089 77.211 80.3767 79.3602C76.3445 81.5094 71.6921 82.1949 67.2114 81.3C62.7307 80.4052 58.6986 77.9852 55.8013 74.452C52.904 70.9188 51.3206 66.4908 51.3206 61.9216C51.324 59.3168 51.8407 56.7382 52.8412 54.3333C53.8417 51.9283 55.3065 49.7441 57.1516 47.9056ZM109.018 15.2876H23.0576C21.1021 15.29 19.2274 16.0679 17.8447 17.4506C16.4619 18.8334 15.684 20.7081 15.6816 22.6636V108.624C15.684 110.579 16.4619 112.454 17.8447 113.837C19.2274 115.219 21.1021 115.997 23.0576 116H109.018C110.973 115.997 112.848 115.219 114.231 113.837C115.613 112.454 116.391 110.579 116.394 108.624V22.6636C116.391 20.7081 115.613 18.8334 114.231 17.4506C112.848 16.0679 110.973 15.29 109.018 15.2876ZM113.444 108.624C113.442 109.797 112.976 110.922 112.146 111.752C111.316 112.582 110.191 113.048 109.018 113.05H23.0576C21.8842 113.048 20.7592 112.582 19.9294 111.752C19.0997 110.922 18.633 109.797 18.6316 108.624V35.9416H113.443L113.444 108.624ZM113.444 32.9916H18.6326V22.6636C18.6342 21.4905 19.1009 20.3659 19.9304 19.5364C20.76 18.7069 21.8845 18.2402 23.0576 18.2386H109.018C110.191 18.2399 111.316 18.7067 112.146 19.5364C112.976 20.3662 113.442 21.4912 113.444 22.6646V32.9916ZM32.3276 24.5186C32.0359 24.5186 31.7507 24.6051 31.5082 24.7672C31.2656 24.9293 31.0766 25.1596 30.9649 25.4291C30.8533 25.6987 30.8241 25.9952 30.881 26.2814C30.9379 26.5675 31.0784 26.8303 31.2847 27.0366C31.4909 27.2429 31.7538 27.3833 32.0399 27.4403C32.326 27.4972 32.6226 27.468 32.8921 27.3563C33.1616 27.2447 33.392 27.0556 33.5541 26.8131C33.7161 26.5705 33.8026 26.2853 33.8026 25.9936C33.8026 25.6024 33.6472 25.2272 33.3706 24.9506C33.094 24.674 32.7188 24.5186 32.3276 24.5186ZM27.3816 71.3476H33.4816C34.2377 71.3465 34.9625 71.0457 35.4971 70.5111C36.0318 69.9765 36.3326 69.2517 36.3336 68.4956V62.3956C36.3321 61.6399 36.031 60.9156 35.4964 60.3814C34.9619 59.8472 34.2374 59.5467 33.4816 59.5456H27.3816C26.6256 59.5467 25.9008 59.8475 25.3661 60.3821C24.8315 60.9167 24.5307 61.6415 24.5296 62.3976V68.4976C24.5312 69.2533 24.8323 69.9776 25.3668 70.5118C25.9014 71.046 26.6259 71.3465 27.3816 71.3476ZM27.4816 62.4956H33.3816V68.3956H27.4816V62.4956ZM27.3816 106.754H33.4816C34.2377 106.753 34.9625 106.452 35.4971 105.917C36.0318 105.382 36.3326 104.658 36.3336 103.902V97.8016C36.3318 97.046 36.0306 96.322 35.4961 95.788C34.9615 95.2541 34.2372 94.9537 33.4816 94.9526H27.3816C26.6256 94.9537 25.9008 95.2545 25.3661 95.7891C24.8315 96.3237 24.5307 97.0485 24.5296 97.8046V103.905C24.5312 104.66 24.8323 105.385 25.3668 105.919C25.9014 106.453 26.6259 106.753 27.3816 106.754ZM27.4816 97.9016H33.3816V103.802H27.4816V97.9016ZM27.3816 53.6436H33.4816C34.2377 53.6425 34.9625 53.3417 35.4971 52.8071C36.0318 52.2725 36.3326 51.5477 36.3336 50.7916V44.6916C36.3318 43.936 36.0306 43.212 35.4961 42.678C34.9615 42.1441 34.2372 41.8437 33.4816 41.8426H27.3816C26.6256 41.8437 25.9008 42.1445 25.3661 42.6791C24.8315 43.2137 24.5307 43.9385 24.5296 44.6946V50.7946C24.5312 51.5503 24.8323 52.2746 25.3668 52.8088C25.9014 53.343 26.6259 53.6425 27.3816 53.6436ZM27.4816 44.7916H33.3816V50.6916H27.4816V44.7916ZM44.1306 102.331H94.2646C94.656 102.331 95.0313 102.175 95.308 101.898C95.5847 101.622 95.7401 101.246 95.7401 100.855C95.7401 100.464 95.5847 100.088 95.308 99.8118C95.0313 99.5351 94.656 99.3796 94.2646 99.3796H44.1306C43.7393 99.3796 43.364 99.5351 43.0873 99.8118C42.8106 100.088 42.6551 100.464 42.6551 100.855C42.6551 101.246 42.8106 101.622 43.0873 101.898C43.364 102.175 43.7393 102.331 44.1306 102.331ZM26.4306 24.5206C26.1389 24.5206 25.8537 24.6071 25.6112 24.7692C25.3686 24.9313 25.1796 25.1616 25.0679 25.4311C24.9563 25.7007 24.9271 25.9972 24.984 26.2834C25.0409 26.5695 25.1814 26.8323 25.3877 27.0386C25.5939 27.2449 25.8568 27.3853 26.1429 27.4423C26.429 27.4992 26.7256 27.47 26.9951 27.3583C27.2646 27.2467 27.495 27.0576 27.6571 26.8151C27.8191 26.5725 27.9056 26.2873 27.9056 25.9956C27.9056 25.6044 27.7502 25.2292 27.4736 24.9526C27.197 24.676 26.8218 24.5206 26.4306 24.5206ZM44.1306 84.6276H53.2996C53.691 84.6276 54.0663 84.4721 54.343 84.1954C54.6197 83.9187 54.7751 83.5434 54.7751 83.1521C54.7751 82.7608 54.6197 82.3855 54.343 82.1088C54.0663 81.8321 53.691 81.6766 53.2996 81.6766H44.1306C43.7393 81.6766 43.364 81.8321 43.0873 82.1088C42.8106 82.3855 42.6551 82.7608 42.6551 83.1521C42.6551 83.5434 42.8106 83.9187 43.0873 84.1954C43.364 84.4721 43.7393 84.6276 44.1306 84.6276Z" fill="#1A35C9"/>
<path d="M32.2174 16.479C32.2877 15.8846 32.4546 15.3056 32.7114 14.765C33.2809 13.73 33.452 12.5224 33.1924 11.37C32.6758 10.267 31.7921 9.37766 30.6924 8.854C30.1678 8.57754 29.6889 8.22206 29.2724 7.8C28.9734 7.29726 28.7617 6.74747 28.6464 6.174C28.4542 4.99166 27.8525 3.91452 26.9464 3.131C25.8827 2.55516 24.6587 2.3467 23.4644 2.538C22.8447 2.60763 22.2178 2.57793 21.6074 2.45C21.0699 2.21942 20.5729 1.90408 20.1354 1.516C19.252 0.653389 18.1004 0.11851 16.8714 0C15.6429 0.119202 14.4918 0.653996 13.6084 1.516C13.1709 1.90408 12.6739 2.21942 12.1364 2.45C11.526 2.57793 10.8991 2.60763 10.2794 2.538C9.08347 2.34557 7.85748 2.55406 6.7924 3.131C5.88633 3.91452 5.28458 4.99166 5.0924 6.174C4.97771 6.74735 4.76673 7.29713 4.4684 7.8C4.0548 8.21935 3.58091 8.5746 3.0624 8.854C1.95555 9.37298 1.06537 10.2632 0.546397 11.37C0.287386 12.5227 0.459191 13.7303 1.0294 14.765C1.28623 15.3056 1.45309 15.8846 1.5234 16.479C1.45309 17.0734 1.28623 17.6524 1.0294 18.193C0.459191 19.2277 0.287386 20.4353 0.546397 21.588C1.06303 22.691 1.94671 23.5803 3.0464 24.104C3.56997 24.381 4.04788 24.7368 4.4634 25.159C4.76327 25.6609 4.97594 26.21 5.0924 26.783C5.28458 27.9653 5.88633 29.0425 6.7924 29.826C7.85605 30.4018 9.0801 30.6103 10.2744 30.419C10.8941 30.3494 11.521 30.3791 12.1314 30.507C12.6689 30.7376 13.1659 31.0529 13.6034 31.441C14.4868 32.303 15.6379 32.8378 16.8664 32.957C18.0949 32.8378 19.246 32.303 20.1294 31.441C20.5669 31.0529 21.0639 30.7376 21.6014 30.507C22.2118 30.3791 22.8387 30.3494 23.4584 30.419C24.6527 30.6103 25.8767 30.4018 26.9404 29.826C27.8465 29.0425 28.4482 27.9653 28.6404 26.783C28.7557 26.2095 28.9674 25.6597 29.2664 25.157C29.6822 24.7359 30.1589 24.3796 30.6804 24.1C31.7852 23.581 32.6739 22.6921 33.1924 21.587C33.4514 20.4343 33.2796 19.2267 32.7094 18.192C32.453 17.6517 32.2868 17.073 32.2174 16.479Z" fill="#FFD0CC"/>
<path d="M13.2456 19.7886C12.5737 19.786 11.9956 19.6206 11.5112 19.2925C11.0295 18.9644 10.6584 18.4891 10.3979 17.8667C10.1401 17.2443 10.0125 16.4956 10.0151 15.6206C10.0151 14.7482 10.144 14.0047 10.4019 13.3901C10.6623 12.7756 11.0334 12.3081 11.5151 11.9878C11.9995 11.6649 12.5763 11.5034 13.2456 11.5034C13.9149 11.5034 14.4904 11.6649 14.9722 11.9878C15.4565 12.3107 15.8289 12.7795 16.0894 13.394C16.3498 14.006 16.4787 14.7482 16.4761 15.6206C16.4761 16.4982 16.3459 17.2482 16.0854 17.8706C15.8276 18.493 15.4578 18.9683 14.9761 19.2964C14.4943 19.6245 13.9175 19.7886 13.2456 19.7886ZM13.2456 18.3862C13.7039 18.3862 14.0698 18.1558 14.3433 17.6948C14.6167 17.2339 14.7521 16.5425 14.7495 15.6206C14.7495 15.0138 14.687 14.5086 14.562 14.105C14.4396 13.7013 14.2651 13.3979 14.0386 13.1948C13.8146 12.9917 13.5503 12.8901 13.2456 12.8901C12.7899 12.8901 12.4253 13.118 12.1519 13.5737C11.8784 14.0295 11.7404 14.7118 11.7378 15.6206C11.7378 16.2352 11.799 16.7482 11.9214 17.1597C12.0464 17.5685 12.2222 17.8758 12.4487 18.0815C12.6753 18.2847 12.9409 18.3862 13.2456 18.3862ZM21.1626 11.6128V19.6128H19.4712V13.2183H19.4243L17.5923 14.3667V12.8667L19.5728 11.6128H21.1626Z" fill="white"/>
</svg>
