<svg width="779" height="689" viewBox="0 0 779 689" fill="none" xmlns="http://www.w3.org/2000/svg">
<path d="M467.475 596.481C463.702 597.563 459.819 598.615 455.928 599.611C455.389 599.748 454.819 599.665 454.341 599.382C453.864 599.099 453.517 598.638 453.379 598.101C453.253 597.563 453.341 596.997 453.622 596.522C453.904 596.048 454.358 595.7 454.889 595.551C458.806 594.552 462.704 593.452 466.507 592.401L468.953 591.691L468.968 591.687C469.501 591.532 470.074 591.595 470.561 591.863C471.048 592.13 471.409 592.58 471.564 593.114C471.719 593.647 471.655 594.22 471.388 594.707C471.12 595.194 470.67 595.555 470.137 595.71L467.665 596.427L467.475 596.481ZM484.111 591.341C483.582 591.499 483.012 591.442 482.525 591.182C482.037 590.922 481.673 590.48 481.51 589.952C481.347 589.424 481.399 588.854 481.655 588.364C481.911 587.875 482.35 587.506 482.876 587.339C487.483 585.81 492.112 584.179 496.629 582.492C497.149 582.297 497.725 582.318 498.231 582.548C498.736 582.779 499.129 583.201 499.323 583.721C499.518 584.241 499.497 584.818 499.267 585.323C499.036 585.828 498.614 586.221 498.094 586.416C493.53 588.119 488.854 589.766 484.195 591.315C484.167 591.323 484.14 591.33 484.11 591.339M441.723 602.981C441.679 602.994 441.639 603.005 441.595 603.018C436.861 604.063 432.002 605.04 427.156 605.936C426.884 605.992 426.602 605.994 426.329 605.94C426.056 605.886 425.796 605.778 425.565 605.623C425.334 605.468 425.136 605.268 424.983 605.035C424.83 604.802 424.725 604.541 424.674 604.267C424.623 603.994 424.627 603.712 424.687 603.44C424.746 603.168 424.859 602.91 425.019 602.682C425.179 602.454 425.383 602.26 425.618 602.112C425.854 601.964 426.117 601.864 426.392 601.819C431.193 600.932 436.003 599.961 440.69 598.928C441.221 598.811 441.777 598.905 442.241 599.19C442.704 599.476 443.038 599.93 443.171 600.457C443.305 600.985 443.229 601.543 442.958 602.015C442.687 602.487 442.243 602.835 441.72 602.985M511.574 581.099C511.06 581.245 510.51 581.189 510.036 580.943C509.562 580.697 509.2 580.279 509.024 579.775C508.848 579.271 508.871 578.719 509.089 578.231C509.307 577.744 509.703 577.358 510.195 577.152C514.694 575.283 519.189 573.325 523.554 571.311C523.804 571.196 524.074 571.131 524.348 571.12C524.623 571.11 524.897 571.153 525.155 571.249C525.413 571.344 525.65 571.489 525.852 571.676C526.054 571.863 526.217 572.088 526.332 572.337C526.447 572.587 526.512 572.857 526.522 573.132C526.533 573.407 526.489 573.681 526.394 573.939C526.299 574.197 526.153 574.434 525.967 574.635C525.78 574.837 525.555 575 525.305 575.115C520.894 577.145 516.35 579.133 511.801 581.018C511.727 581.05 511.651 581.077 511.574 581.099ZM412.898 608.311C412.81 608.336 412.72 608.355 412.629 608.368C407.795 609.096 402.883 609.755 398.031 610.326C397.479 610.389 396.925 610.231 396.489 609.887C396.053 609.542 395.772 609.038 395.706 608.487C395.671 608.213 395.691 607.935 395.765 607.669C395.838 607.403 395.964 607.155 396.136 606.938C396.307 606.722 396.519 606.542 396.761 606.409C397.003 606.276 397.269 606.193 397.543 606.164C402.349 605.601 407.216 604.951 412.006 604.229C412.531 604.15 413.067 604.275 413.504 604.576C413.941 604.878 414.247 605.334 414.361 605.853C414.474 606.372 414.386 606.914 414.114 607.371C413.843 607.827 413.408 608.163 412.898 608.311ZM538.21 568.855C537.709 568.999 537.172 568.95 536.705 568.719C536.237 568.488 535.873 568.091 535.683 567.606C535.493 567.121 535.49 566.582 535.676 566.095C535.862 565.608 536.223 565.208 536.689 564.973C541.023 562.78 545.355 560.481 549.566 558.141C550.052 557.874 550.623 557.81 551.156 557.964C551.688 558.118 552.138 558.476 552.407 558.96C552.675 559.444 552.742 560.016 552.59 560.549C552.439 561.082 552.083 561.533 551.6 561.804C547.343 564.169 542.958 566.494 538.582 568.709C538.462 568.769 538.337 568.818 538.208 568.856M383.781 611.727C383.65 611.764 383.516 611.789 383.381 611.802C378.506 612.217 373.566 612.556 368.69 612.814C368.136 612.843 367.592 612.651 367.179 612.28C366.766 611.909 366.517 611.389 366.487 610.834C366.458 610.28 366.65 609.736 367.021 609.323C367.392 608.91 367.912 608.661 368.467 608.631C373.304 608.373 378.203 608.036 383.029 607.626C383.547 607.581 384.063 607.731 384.477 608.046C384.891 608.361 385.173 608.819 385.268 609.33C385.362 609.842 385.263 610.37 384.99 610.813C384.716 611.255 384.288 611.58 383.788 611.724M563.876 554.662C563.386 554.803 562.862 554.76 562.402 554.543C561.941 554.325 561.575 553.947 561.374 553.48C561.172 553.012 561.147 552.487 561.304 552.002C561.462 551.518 561.79 551.107 562.229 550.848C566.666 548.208 570.721 545.695 574.633 543.169C574.864 543.02 575.122 542.918 575.393 542.868C575.663 542.819 575.941 542.823 576.21 542.881C576.479 542.939 576.733 543.049 576.96 543.206C577.186 543.362 577.379 543.561 577.529 543.792C577.678 544.023 577.78 544.282 577.83 544.552C577.879 544.823 577.875 545.1 577.817 545.369C577.759 545.638 577.649 545.893 577.492 546.119C577.336 546.346 577.137 546.539 576.906 546.688C572.956 549.241 568.851 551.78 564.371 554.444C564.215 554.536 564.048 554.608 563.875 554.658M354.5 613.282C354.327 613.332 354.148 613.359 353.968 613.363C349.122 613.469 344.168 613.5 339.241 613.455C338.686 613.45 338.155 613.224 337.766 612.828C337.376 612.431 337.161 611.896 337.166 611.341C337.171 610.785 337.396 610.254 337.793 609.865C338.189 609.476 338.724 609.26 339.28 609.265C344.163 609.312 349.073 609.28 353.876 609.175C354.385 609.163 354.881 609.337 355.271 609.665C355.661 609.992 355.919 610.45 355.996 610.954C356.072 611.458 355.962 611.972 355.687 612.4C355.412 612.829 354.99 613.143 354.5 613.282ZM588.47 538.702C587.996 538.838 587.49 538.802 587.04 538.601C586.59 538.399 586.225 538.046 586.01 537.602C585.795 537.158 585.743 536.653 585.864 536.175C585.985 535.697 586.271 535.277 586.671 534.989C590.744 532.065 594.631 529.097 598.226 526.162C598.438 525.98 598.684 525.843 598.95 525.757C599.216 525.672 599.496 525.64 599.775 525.665C600.053 525.69 600.323 525.77 600.57 525.9C600.817 526.031 601.035 526.21 601.212 526.426C601.389 526.643 601.521 526.892 601.599 527.16C601.678 527.428 601.703 527.709 601.671 527.987C601.64 528.264 601.553 528.533 601.416 528.776C601.279 529.02 601.095 529.234 600.874 529.405C597.212 532.394 593.255 535.416 589.114 538.39C588.919 538.53 588.7 538.635 588.469 538.701M325.182 613.013C324.967 613.076 324.743 613.103 324.52 613.092C319.608 612.897 314.662 612.622 309.819 612.28C309.541 612.266 309.268 612.196 309.017 612.076C308.766 611.955 308.541 611.785 308.357 611.576C308.172 611.368 308.031 611.124 307.942 610.86C307.852 610.597 307.816 610.318 307.836 610.04C307.856 609.762 307.931 609.491 308.056 609.242C308.182 608.993 308.356 608.772 308.569 608.592C308.781 608.411 309.027 608.275 309.293 608.191C309.558 608.107 309.838 608.076 310.116 608.102C314.915 608.44 319.821 608.713 324.689 608.908C325.186 608.928 325.66 609.124 326.026 609.462C326.391 609.8 326.625 610.256 326.684 610.751C326.743 611.245 326.625 611.744 326.349 612.158C326.074 612.573 325.66 612.876 325.182 613.013ZM295.937 610.954C295.682 611.028 295.415 611.052 295.151 611.025C290.28 610.534 285.359 609.962 280.524 609.328C280.25 609.293 279.986 609.205 279.747 609.068C279.507 608.931 279.297 608.748 279.128 608.53C278.96 608.311 278.836 608.062 278.764 607.795C278.692 607.529 278.674 607.251 278.71 606.977C278.746 606.704 278.835 606.44 278.973 606.201C279.112 605.962 279.296 605.753 279.515 605.586C279.734 605.418 279.985 605.296 280.251 605.225C280.518 605.155 280.796 605.138 281.07 605.175C285.863 605.806 290.742 606.37 295.57 606.859C296.055 606.907 296.508 607.123 296.851 607.469C297.194 607.815 297.405 608.27 297.448 608.755C297.492 609.24 297.364 609.725 297.088 610.127C296.812 610.528 296.405 610.821 295.937 610.954ZM611.137 520.1C610.688 520.225 610.21 520.196 609.778 520.019C609.347 519.842 608.986 519.527 608.754 519.123C608.522 518.718 608.431 518.248 608.495 517.786C608.56 517.324 608.776 516.897 609.11 516.572C612.696 513.151 616.053 509.626 619.096 506.114C619.272 505.894 619.49 505.712 619.738 505.579C619.986 505.446 620.258 505.364 620.538 505.338C620.818 505.312 621.101 505.343 621.369 505.429C621.637 505.515 621.885 505.654 622.098 505.837C622.311 506.021 622.485 506.246 622.609 506.499C622.733 506.751 622.805 507.026 622.82 507.307C622.836 507.588 622.794 507.869 622.699 508.134C622.603 508.398 622.455 508.641 622.263 508.847C619.139 512.464 615.682 516.083 612.004 519.6C611.758 519.833 611.461 520.004 611.136 520.099M266.868 607.139C266.572 607.224 266.261 607.242 265.957 607.192C261.12 606.409 256.243 605.546 251.46 604.626C250.944 604.491 250.498 604.164 250.214 603.713C249.929 603.261 249.827 602.718 249.929 602.194C250.03 601.671 250.327 601.205 250.76 600.892C251.192 600.579 251.727 600.443 252.257 600.511C256.992 601.425 261.833 602.282 266.628 603.057C267.099 603.132 267.53 603.366 267.849 603.719C268.169 604.073 268.359 604.525 268.387 605C268.415 605.476 268.28 605.947 268.005 606.336C267.729 606.724 267.329 607.008 266.871 607.138M630.216 497.905C629.802 498.024 629.361 498.013 628.954 497.872C628.546 497.732 628.192 497.469 627.939 497.119C627.687 496.77 627.548 496.351 627.543 495.92C627.537 495.489 627.665 495.066 627.908 494.71C630.615 490.755 633.066 486.63 635.246 482.362C635.37 482.116 635.542 481.896 635.751 481.717C635.96 481.537 636.202 481.401 636.464 481.315C636.726 481.229 637.002 481.196 637.277 481.217C637.552 481.238 637.82 481.314 638.065 481.439C638.311 481.564 638.529 481.736 638.708 481.946C638.887 482.155 639.023 482.398 639.108 482.661C639.193 482.923 639.225 483.199 639.203 483.474C639.18 483.749 639.104 484.016 638.978 484.261C636.717 488.691 634.174 492.97 631.363 497.073C631.091 497.477 630.685 497.772 630.216 497.905ZM238.082 601.598C237.747 601.694 237.392 601.705 237.051 601.628C232.271 600.56 227.453 599.409 222.733 598.202C222.195 598.065 221.733 597.719 221.45 597.241C221.167 596.764 221.085 596.193 221.222 595.655C221.36 595.117 221.705 594.655 222.183 594.372C222.661 594.089 223.231 594.007 223.769 594.144C228.45 595.34 233.225 596.484 237.963 597.54C238.418 597.642 238.825 597.891 239.121 598.25C239.418 598.608 239.587 599.056 239.601 599.521C239.615 599.986 239.474 600.442 239.199 600.818C238.925 601.194 238.533 601.468 238.086 601.597M643.408 471.848C643.04 471.954 642.65 471.956 642.281 471.855C641.912 471.754 641.577 471.554 641.314 471.276C641.05 470.998 640.868 470.654 640.787 470.28C640.706 469.905 640.729 469.516 640.854 469.154C642.407 464.627 643.639 459.996 644.54 455.295C644.676 454.781 645.002 454.337 645.453 454.054C645.903 453.771 646.444 453.669 646.966 453.77C647.489 453.87 647.953 454.165 648.267 454.594C648.58 455.024 648.719 455.556 648.655 456.084C647.716 460.979 646.432 465.802 644.812 470.516C644.703 470.835 644.519 471.123 644.274 471.355C644.03 471.587 643.733 471.756 643.408 471.848ZM209.683 594.345C209.306 594.454 208.905 594.453 208.528 594.343C204.776 593.264 201.04 592.141 197.32 590.975L194.44 590.06C193.919 589.883 193.49 589.509 193.243 589.018C192.996 588.527 192.952 587.959 193.12 587.436C193.288 586.913 193.655 586.477 194.141 586.222C194.628 585.967 195.195 585.913 195.721 586.072L198.573 586.978C202.262 588.136 205.967 589.249 209.686 590.319C210.123 590.445 210.507 590.709 210.78 591.073C211.054 591.436 211.201 591.878 211.201 592.333C211.201 592.787 211.053 593.23 210.779 593.593C210.505 593.956 210.121 594.22 209.684 594.345M181.778 585.34C181.354 585.463 180.901 585.447 180.486 585.295C175.676 583.537 171.053 581.71 166.745 579.862C166.234 579.643 165.832 579.23 165.626 578.714C165.42 578.198 165.427 577.622 165.647 577.112C165.866 576.601 166.278 576.199 166.794 575.993C167.31 575.787 167.887 575.794 168.397 576.014C172.633 577.831 177.185 579.631 181.919 581.358C182.335 581.509 182.693 581.789 182.94 582.156C183.188 582.523 183.313 582.959 183.297 583.401C183.281 583.844 183.126 584.27 182.853 584.618C182.579 584.967 182.204 585.219 181.778 585.34ZM648.997 443.177C648.672 443.271 648.329 443.285 647.998 443.218C647.667 443.15 647.357 443.003 647.095 442.79C646.832 442.576 646.626 442.302 646.493 441.991C646.36 441.681 646.304 441.342 646.331 441.005C646.694 436.286 646.955 431.608 647.232 426.42C647.243 426.143 647.309 425.87 647.426 425.619C647.543 425.367 647.709 425.142 647.914 424.955C648.119 424.768 648.36 424.624 648.621 424.531C648.882 424.437 649.159 424.397 649.437 424.412C649.714 424.427 649.985 424.496 650.235 424.617C650.485 424.737 650.708 424.906 650.892 425.114C651.076 425.322 651.217 425.564 651.307 425.826C651.397 426.089 651.434 426.366 651.415 426.643C651.135 431.859 650.874 436.564 650.507 441.327C650.474 441.753 650.311 442.158 650.041 442.489C649.771 442.819 649.407 443.059 648.997 443.177ZM154.884 573.716C154.371 573.864 153.82 573.81 153.346 573.564C148.816 571.222 144.481 568.748 140.463 566.199C139.994 565.902 139.662 565.431 139.541 564.889C139.419 564.347 139.518 563.779 139.815 563.311C140.112 562.842 140.584 562.51 141.125 562.389C141.667 562.267 142.235 562.366 142.704 562.663C146.621 565.146 150.849 567.559 155.269 569.843C155.642 570.035 155.949 570.335 156.149 570.704C156.35 571.072 156.435 571.492 156.393 571.91C156.352 572.327 156.186 572.723 155.917 573.045C155.648 573.367 155.289 573.601 154.885 573.716M650.759 413.905C650.435 413.999 650.093 414.013 649.762 413.946C649.432 413.879 649.122 413.733 648.86 413.521C648.598 413.309 648.391 413.036 648.257 412.727C648.123 412.417 648.066 412.08 648.09 411.744C648.488 406.102 648.942 401.425 649.513 397.027C649.618 396.506 649.917 396.043 650.349 395.734C650.782 395.424 651.316 395.29 651.843 395.359C652.37 395.427 652.852 395.694 653.191 396.104C653.53 396.514 653.7 397.037 653.668 397.568C653.106 401.884 652.662 406.482 652.269 412.039C652.239 412.468 652.077 412.876 651.807 413.21C651.537 413.544 651.17 413.786 650.757 413.904M130.204 557.978C129.885 558.07 129.548 558.085 129.222 558.02C128.896 557.956 128.59 557.814 128.329 557.608C126.78 556.383 125.257 555.121 123.761 553.82C121.514 551.864 119.313 549.79 117.223 547.647C116.838 547.249 116.627 546.715 116.635 546.162C116.643 545.609 116.87 545.081 117.265 544.695C117.661 544.308 118.194 544.094 118.747 544.099C119.3 544.103 119.829 544.327 120.218 544.72C122.231 546.779 124.348 548.776 126.512 550.658C127.956 551.913 129.428 553.133 130.928 554.32C131.23 554.559 131.46 554.876 131.594 555.238C131.727 555.599 131.758 555.99 131.684 556.368C131.609 556.745 131.432 557.095 131.172 557.379C130.911 557.663 130.578 557.869 130.207 557.975M720.993 370.529C720.477 370.678 719.922 370.622 719.445 370.374C718.968 370.125 718.605 369.702 718.432 369.193C718.258 368.684 718.287 368.128 718.512 367.639C718.738 367.151 719.143 366.768 719.643 366.57C723.96 364.919 727.897 362.41 731.217 359.194C731.614 358.818 732.142 358.612 732.689 358.62C733.236 358.628 733.758 358.849 734.144 359.237C734.529 359.625 734.748 360.148 734.753 360.695C734.758 361.242 734.549 361.769 734.171 362.164C730.452 365.779 726.038 368.602 721.197 370.462C721.13 370.487 721.06 370.511 720.994 370.53M706.762 373.813C706.629 373.852 706.492 373.876 706.354 373.886C701.293 374.291 696.201 374.021 691.211 373.082C690.671 372.975 690.194 372.659 689.885 372.203C689.576 371.747 689.459 371.187 689.559 370.646C689.66 370.104 689.97 369.623 690.422 369.309C690.875 368.994 691.433 368.871 691.976 368.965C696.601 369.835 701.321 370.086 706.012 369.712C706.53 369.67 707.045 369.822 707.457 370.138C707.869 370.454 708.149 370.912 708.242 371.423C708.336 371.935 708.236 372.462 707.962 372.904C707.688 373.345 707.261 373.669 706.762 373.813ZM654.765 384.89C654.413 384.991 654.041 384.998 653.686 384.91C653.331 384.822 653.005 384.643 652.741 384.39C652.476 384.137 652.283 383.819 652.18 383.468C652.076 383.117 652.067 382.745 652.153 382.389C653.295 377.526 654.813 372.76 656.693 368.132C656.794 367.873 656.945 367.637 657.139 367.437C657.332 367.237 657.563 367.078 657.818 366.969C658.074 366.859 658.348 366.802 658.626 366.799C658.904 366.797 659.18 366.85 659.437 366.955C659.694 367.061 659.928 367.216 660.124 367.412C660.321 367.609 660.476 367.843 660.581 368.1C660.687 368.357 660.74 368.632 660.737 368.91C660.735 369.188 660.678 369.463 660.568 369.718C658.772 374.148 657.321 378.71 656.228 383.364C656.142 383.725 655.961 384.057 655.704 384.325C655.447 384.593 655.124 384.788 654.766 384.89M109.784 537.051C109.374 537.168 108.938 537.158 108.535 537.021C108.131 536.884 107.779 536.627 107.525 536.285C104.551 532.275 101.877 528.052 99.5223 523.649C99.2609 523.159 99.2051 522.584 99.3672 522.053C99.5293 521.521 99.8961 521.075 100.387 520.814C100.877 520.552 101.452 520.497 101.984 520.659C102.515 520.821 102.961 521.188 103.222 521.678C105.48 525.899 108.044 529.948 110.895 533.793C111.096 534.065 111.229 534.382 111.281 534.716C111.333 535.051 111.303 535.393 111.194 535.713C111.085 536.034 110.899 536.323 110.654 536.556C110.408 536.789 110.11 536.959 109.784 537.051ZM678.207 368.693C677.736 368.827 677.234 368.792 676.787 368.594C672.185 366.557 667.804 364.056 663.71 361.129C663.259 360.806 662.953 360.317 662.861 359.77C662.769 359.222 662.897 358.66 663.219 358.207C663.427 357.916 663.706 357.682 664.029 357.528C663.65 357.195 663.404 356.736 663.338 356.236C663.271 355.735 663.387 355.228 663.665 354.807C666.429 350.608 669.596 346.688 673.12 343.102C673.509 342.706 674.04 342.481 674.596 342.477C675.151 342.472 675.685 342.688 676.081 343.078C676.477 343.467 676.702 343.998 676.707 344.553C676.712 345.109 676.496 345.643 676.106 346.039C672.774 349.428 669.781 353.135 667.168 357.105C666.959 357.424 666.667 357.68 666.324 357.847C670.135 360.552 674.207 362.87 678.479 364.764C678.869 364.941 679.196 365.232 679.416 365.6C679.635 365.967 679.737 366.393 679.708 366.82C679.679 367.247 679.52 367.656 679.252 367.99C678.985 368.324 678.622 368.568 678.211 368.69M740.321 350.078C739.993 350.173 739.646 350.185 739.312 350.113C739.043 350.056 738.787 349.947 738.561 349.792C738.334 349.636 738.14 349.438 737.99 349.207C737.841 348.977 737.738 348.719 737.688 348.449C737.637 348.179 737.641 347.901 737.698 347.633C738.42 344.346 738.33 340.934 737.436 337.69C737.145 336.664 736.758 335.667 736.278 334.715C736.07 334.225 736.057 333.674 736.239 333.175C736.422 332.675 736.788 332.263 737.263 332.023C737.737 331.782 738.285 331.731 738.796 331.879C739.307 332.028 739.743 332.364 740.016 332.821C740.614 334.012 741.099 335.257 741.463 336.539C742.545 340.44 742.659 344.545 741.795 348.499C741.717 348.871 741.538 349.215 741.278 349.494C741.019 349.772 740.687 349.974 740.321 350.078ZM654.453 351.831C654.084 351.937 653.694 351.939 653.324 351.839C652.955 351.739 652.619 351.539 652.355 351.262C648.888 347.621 645.782 343.653 643.079 339.414C642.931 339.182 642.831 338.923 642.783 338.652C642.736 338.381 642.742 338.104 642.802 337.835C642.862 337.567 642.974 337.313 643.132 337.088C643.29 336.863 643.491 336.671 643.723 336.523C643.955 336.376 644.214 336.276 644.485 336.228C644.756 336.181 645.033 336.187 645.302 336.247C645.57 336.307 645.824 336.419 646.049 336.577C646.274 336.735 646.466 336.936 646.613 337.168C649.171 341.178 652.111 344.931 655.391 348.374C655.64 348.635 655.817 348.955 655.906 349.305C655.994 349.654 655.991 350.02 655.896 350.368C655.802 350.715 655.619 351.033 655.366 351.289C655.113 351.545 654.799 351.732 654.453 351.831ZM96.1215 511.238C95.6033 511.385 95.0484 511.327 94.5715 511.077C94.0946 510.826 93.7322 510.402 93.5593 509.892C93.1448 508.664 92.7586 507.426 92.4008 506.179C91.3745 502.604 90.5989 498.962 90.0796 495.279C90.0396 495.006 90.0539 494.728 90.1219 494.46C90.1898 494.192 90.31 493.941 90.4756 493.72C90.6411 493.499 90.8487 493.313 91.0864 493.173C91.3241 493.032 91.5872 492.94 91.8606 492.902C92.134 492.863 92.4123 492.879 92.6795 492.949C92.9466 493.019 93.1974 493.14 93.4173 493.307C93.6373 493.474 93.822 493.683 93.961 493.922C94.0999 494.16 94.1903 494.424 94.2269 494.697C94.7195 498.186 95.4547 501.636 96.4273 505.023C96.7672 506.209 97.1354 507.386 97.5317 508.555C97.708 509.082 97.6681 509.658 97.4209 510.156C97.1736 510.653 96.7391 511.033 96.2126 511.211C96.1828 511.219 96.1501 511.229 96.1164 511.238M727.737 326.685C727.339 326.799 726.915 326.792 726.52 326.663C722.114 325.396 717.477 325.151 712.962 325.948C712.69 325.99 712.411 325.978 712.143 325.913C711.876 325.848 711.623 325.73 711.401 325.567C711.179 325.404 710.991 325.198 710.848 324.962C710.705 324.726 710.611 324.464 710.57 324.192C710.528 323.919 710.541 323.641 710.608 323.373C710.675 323.106 710.793 322.854 710.958 322.632C711.122 322.411 711.328 322.224 711.565 322.082C711.801 321.94 712.063 321.847 712.336 321.807C717.491 320.895 722.787 321.193 727.806 322.677C728.234 322.814 728.606 323.086 728.867 323.451C729.129 323.817 729.266 324.257 729.258 324.706C729.25 325.155 729.098 325.59 728.824 325.946C728.551 326.302 728.169 326.561 727.737 326.684M686.412 337.181C685.934 337.319 685.423 337.282 684.97 337.077C684.517 336.872 684.151 336.513 683.939 336.063C683.727 335.613 683.681 335.103 683.811 334.623C683.941 334.143 684.237 333.724 684.647 333.443C688.79 330.595 693.201 328.157 697.816 326.163C698.069 326.047 698.344 325.983 698.623 325.974C698.902 325.965 699.18 326.013 699.44 326.113C699.701 326.213 699.939 326.364 700.14 326.558C700.341 326.751 700.501 326.983 700.612 327.239C700.722 327.496 700.78 327.772 700.783 328.051C700.785 328.33 700.731 328.607 700.625 328.865C700.519 329.123 700.362 329.357 700.164 329.554C699.966 329.751 699.731 329.906 699.472 330.011C695.108 331.895 690.937 334.2 687.02 336.893C686.834 337.02 686.629 337.118 686.412 337.181ZM638.808 327.25C638.309 327.391 637.776 327.343 637.31 327.114C636.845 326.886 636.481 326.493 636.287 326.012C635.115 323.077 634.093 320.084 633.224 317.045C632.724 315.301 632.264 313.509 631.857 311.715C631.734 311.174 631.831 310.606 632.126 310.136C632.273 309.903 632.464 309.702 632.688 309.543C632.912 309.384 633.165 309.271 633.433 309.21C633.702 309.148 633.979 309.141 634.25 309.187C634.521 309.233 634.78 309.332 635.013 309.479C635.245 309.625 635.447 309.816 635.606 310.04C635.765 310.265 635.878 310.518 635.939 310.786C636.328 312.506 636.772 314.223 637.251 315.893C638.08 318.797 639.056 321.656 640.177 324.459C640.383 324.976 640.376 325.553 640.157 326.065C639.939 326.576 639.526 326.98 639.01 327.187C638.943 327.212 638.876 327.236 638.809 327.255M92.1956 482.378C91.872 482.47 91.531 482.482 91.2015 482.415C90.872 482.347 90.5636 482.201 90.3022 481.99C90.0407 481.778 89.8339 481.507 89.6992 481.199C89.5645 480.89 89.5058 480.554 89.528 480.219C89.9395 475.151 91.0377 470.163 92.7926 465.392C92.8805 465.127 93.0204 464.882 93.2041 464.672C93.3878 464.462 93.6116 464.291 93.8623 464.169C94.1131 464.046 94.3857 463.975 94.6643 463.96C94.9429 463.944 95.2217 463.985 95.4845 464.078C95.7473 464.172 95.9887 464.317 96.1946 464.506C96.4005 464.694 96.5667 464.921 96.6835 465.175C96.8003 465.428 96.8653 465.702 96.8747 465.981C96.8841 466.26 96.8377 466.538 96.7382 466.799C95.1107 471.211 94.0913 475.825 93.7081 480.513C93.6783 480.942 93.517 481.351 93.2464 481.685C92.9757 482.02 92.6086 482.262 92.1952 482.38M101.451 454.8C101.053 454.914 100.63 454.908 100.236 454.783C99.8411 454.657 99.4926 454.417 99.2345 454.093C98.9765 453.769 98.8203 453.375 98.7859 452.963C98.7514 452.55 98.8402 452.136 99.041 451.774C101.457 447.442 104.091 443.235 106.933 439.17C107.252 438.72 107.735 438.413 108.279 438.317C108.822 438.221 109.382 438.344 109.836 438.658C110.289 438.972 110.601 439.452 110.702 439.995C110.804 440.537 110.687 441.098 110.378 441.555C107.615 445.504 105.054 449.591 102.705 453.799C102.573 454.041 102.394 454.253 102.179 454.425C101.963 454.597 101.716 454.724 101.451 454.8ZM632.228 298.787C632.099 298.824 631.966 298.848 631.832 298.859C631.558 298.883 631.282 298.854 631.02 298.771C630.757 298.689 630.513 298.555 630.303 298.378C630.092 298.202 629.918 297.985 629.791 297.741C629.664 297.497 629.587 297.23 629.563 296.956C629.138 292.004 629.004 287.031 629.162 282.063C629.17 281.789 629.232 281.518 629.345 281.267C629.458 281.016 629.619 280.79 629.819 280.602C630.019 280.413 630.255 280.266 630.512 280.168C630.769 280.071 631.043 280.025 631.318 280.033C631.593 280.041 631.863 280.104 632.114 280.216C632.365 280.329 632.591 280.49 632.78 280.691C632.968 280.891 633.116 281.126 633.213 281.383C633.311 281.64 633.357 281.914 633.348 282.189C633.195 286.993 633.324 291.801 633.732 296.589C633.775 297.074 633.648 297.558 633.373 297.959C633.098 298.361 632.693 298.654 632.226 298.79M117.984 430.602C117.558 430.724 117.105 430.709 116.689 430.557C116.272 430.405 115.915 430.125 115.668 429.757C115.421 429.39 115.297 428.953 115.314 428.51C115.33 428.068 115.487 427.642 115.761 427.294C119.006 423.17 122.265 419.239 125.066 415.878C125.242 415.666 125.458 415.492 125.701 415.364C125.945 415.236 126.211 415.158 126.485 415.133C126.759 415.108 127.035 415.137 127.298 415.219C127.56 415.301 127.804 415.433 128.015 415.609C128.226 415.785 128.401 416.001 128.529 416.245C128.657 416.488 128.735 416.755 128.76 417.028C128.785 417.302 128.756 417.578 128.674 417.841C128.592 418.104 128.46 418.347 128.284 418.559C125.502 421.897 122.263 425.799 119.048 429.887C118.777 430.232 118.403 430.483 117.981 430.603M633.029 269.534C632.695 269.63 632.342 269.64 632.003 269.566C631.664 269.491 631.348 269.333 631.085 269.106C630.822 268.879 630.62 268.59 630.496 268.266C630.373 267.941 630.332 267.591 630.377 267.246C631.008 262.46 631.881 257.543 632.969 252.631C633.12 252.12 633.458 251.686 633.917 251.416C634.375 251.146 634.919 251.06 635.438 251.175C635.958 251.29 636.414 251.598 636.715 252.037C637.016 252.476 637.139 253.012 637.06 253.538C635.996 258.331 635.146 263.126 634.53 267.788C634.477 268.193 634.306 268.574 634.04 268.883C633.773 269.193 633.422 269.418 633.029 269.53M639.31 240.917C638.95 241.021 638.568 241.025 638.205 240.931C637.842 240.836 637.511 240.646 637.247 240.379C636.983 240.113 636.795 239.78 636.703 239.417C636.612 239.053 636.619 238.671 636.726 238.312C637.602 235.341 638.516 232.375 639.433 229.409C639.962 227.699 640.488 225.988 641.011 224.275C641.199 223.777 641.57 223.369 642.048 223.134C642.526 222.899 643.076 222.855 643.585 223.009C644.095 223.164 644.527 223.507 644.793 223.968C645.06 224.43 645.141 224.975 645.02 225.494C644.496 227.213 643.968 228.932 643.437 230.65C642.524 233.598 641.614 236.548 640.741 239.502C640.642 239.84 640.459 240.148 640.209 240.396C639.958 240.645 639.649 240.825 639.309 240.922M647.548 212.782C647.196 212.883 646.823 212.889 646.468 212.8C646.112 212.712 645.786 212.531 645.522 212.277C645.258 212.023 645.065 211.704 644.963 211.352C644.86 211 644.852 210.627 644.939 210.271C646.108 205.613 646.989 200.887 647.577 196.12C647.671 195.594 647.963 195.123 648.393 194.805C648.823 194.486 649.358 194.344 649.889 194.407C650.42 194.469 650.908 194.732 651.252 195.142C651.596 195.551 651.77 196.077 651.74 196.611C651.131 201.547 650.218 206.442 649.008 211.266C648.921 211.626 648.74 211.955 648.484 212.222C648.227 212.488 647.905 212.682 647.55 212.783M650.619 183.75C650.49 183.787 650.358 183.812 650.224 183.823C649.95 183.847 649.674 183.817 649.412 183.734C649.15 183.651 648.907 183.518 648.696 183.341C648.486 183.164 648.312 182.947 648.185 182.703C648.058 182.46 647.981 182.193 647.957 181.919C647.655 178.497 647.025 175.113 646.076 171.811C645.725 170.587 645.332 169.377 644.896 168.182C644.732 167.667 644.773 167.108 645.011 166.623C645.249 166.138 645.665 165.763 646.173 165.578C646.68 165.393 647.24 165.411 647.735 165.629C648.229 165.846 648.621 166.247 648.827 166.747C649.295 168.038 649.724 169.352 650.097 170.655C651.12 174.214 651.799 177.863 652.124 181.551C652.165 182.035 652.037 182.518 651.762 182.919C651.487 183.319 651.082 183.611 650.616 183.746M640.591 156.568C640.18 156.685 639.743 156.675 639.338 156.536C638.934 156.398 638.581 156.14 638.328 155.795C635.62 152.031 632.223 148.812 628.318 146.31C627.859 146.01 627.536 145.542 627.418 145.006C627.301 144.47 627.398 143.909 627.689 143.445C627.98 142.98 628.442 142.647 628.975 142.519C629.509 142.391 630.071 142.478 630.542 142.76C634.892 145.542 638.678 149.122 641.7 153.31C642.028 153.758 642.165 154.317 642.082 154.866C641.998 155.415 641.701 155.909 641.254 156.239C641.053 156.386 640.829 156.497 640.59 156.567" fill="#8692D9"/>
<path d="M616.447 111.449L607.187 118.352C609.191 120.226 610.598 122.649 611.232 125.319C611.5 126.762 611.46 128.246 611.112 129.672C610.765 131.098 610.118 132.434 609.216 133.591C606.339 137.533 601.979 139.162 596.942 138.181C594.903 137.77 592.946 137.028 591.146 135.985C587.561 134.31 555.893 119.517 549.82 116.299C548.032 115.351 544.731 113.651 540.744 111.599L540.137 111.287L518.602 126.692C517.559 127.483 516.361 128.045 515.087 128.342C513.812 128.64 512.489 128.666 511.204 128.419C509.945 128.173 508.751 127.667 507.698 126.932C503.422 123.944 501.448 119.841 502.138 115.375C503.075 109.32 506.737 99.013 508.47 94.3315C497.037 87.1103 491.644 80.0229 490.206 77.9271C484.469 69.5524 485.372 62.3331 485.552 61.2474C485.696 60.2241 487.021 52.4959 494.31 50.4666C494.918 50.3057 495.536 50.1876 496.16 50.1132C496.207 50.108 496.253 50.0966 496.301 50.0938C499.712 49.8177 503.143 49.9484 506.522 50.4832C512.896 51.33 519.047 53.3946 524.641 56.5645L544.597 67.7479C550.316 66.7835 576.244 62.4831 586.639 62.3278C587.603 62.3253 588.565 62.4225 589.509 62.6178C595.23 63.9929 600.631 66.461 605.414 69.8864C606.44 70.7351 607.228 71.8363 607.699 73.0816C608.171 74.3269 608.31 75.6735 608.103 76.9888C607.896 78.3042 607.35 79.543 606.519 80.5834C605.688 81.6238 604.6 82.4299 603.363 82.9225C590.766 87.9247 582.946 91.0977 578.705 92.87L589.783 102.785C594.209 101.506 602.243 99.1327 604.463 98.1736C606.006 97.5467 607.704 97.4065 609.329 97.7718C611.842 98.3366 614.185 99.4904 616.165 101.138C616.871 101.73 617.451 102.457 617.872 103.275C618.294 104.094 618.547 104.989 618.618 105.907C618.69 106.825 618.577 107.748 618.287 108.622C617.997 109.496 617.536 110.304 616.93 110.997C616.785 111.164 616.623 111.315 616.447 111.449ZM508.263 116.32C508.145 117.09 507.782 119.426 511.25 121.85C511.801 122.22 512.456 122.405 513.119 122.377C513.782 122.349 514.419 122.109 514.937 121.693L533.952 108.094C526.717 104.357 518.992 100.331 513.902 97.5136C512.138 102.352 509.046 111.246 508.263 116.32ZM612.44 106.388C612.434 106.292 612.407 106.198 612.363 106.112C612.319 106.027 612.258 105.951 612.184 105.89C611.011 104.912 609.63 104.216 608.147 103.854C607.745 103.749 607.324 103.752 606.923 103.861C603.552 105.317 591.23 108.82 589.837 109.214C589.334 109.356 588.804 109.369 588.295 109.252C587.786 109.134 587.316 108.89 586.926 108.542L571.975 95.1609L567.267 95.4244C562.936 95.6578 558.646 94.4716 555.05 92.0459L551.665 89.758C551.01 89.2867 550.564 88.5785 550.423 87.7839C550.282 86.9893 550.456 86.171 550.909 85.5028C551.361 84.8347 552.057 84.3694 552.847 84.2058C553.637 84.0423 554.46 84.1934 555.141 84.627L558.525 86.9147C560.998 88.5814 563.947 89.3972 566.925 89.2385L572.281 88.938C574.556 87.8257 581.004 85.1325 601.075 77.1621C601.313 77.0734 601.523 76.922 601.682 76.7242C601.84 76.5263 601.943 76.2891 601.978 76.0378C602.022 75.78 601.996 75.5154 601.903 75.271C601.81 75.0267 601.654 74.8114 601.45 74.6474C597.463 71.9 593.017 69.886 588.323 68.7002C587.798 68.5875 587.263 68.5286 586.727 68.5244C577.647 68.6613 554.989 72.3067 547.23 73.5957C547.418 75.2081 547.894 76.7738 548.634 78.2187C548.837 78.5813 548.964 78.981 549.009 79.3939C549.054 79.8068 549.016 80.2245 548.896 80.6223C548.777 81.02 548.578 81.3897 548.313 81.7093C548.048 82.029 547.721 82.292 547.352 82.4829C546.983 82.6738 546.58 82.7887 546.166 82.8206C545.752 82.8525 545.335 82.8009 544.942 82.6688C544.548 82.5367 544.185 82.3268 543.873 82.0516C543.562 81.7764 543.31 81.4415 543.131 81.0668C541.823 78.5089 541.087 75.6973 540.973 72.8268L521.612 61.9759C520.628 61.4274 519.625 60.9159 518.603 60.4414C518.845 61.0504 518.887 61.7205 518.724 62.3551C518.56 62.9897 518.199 63.5559 517.693 63.9721C517.187 64.3883 516.562 64.6329 515.907 64.6706C515.253 64.7084 514.604 64.5373 514.053 64.182C512.298 63.0815 510.498 62.0599 508.654 61.1174C507.922 60.744 507.369 60.0954 507.115 59.3141C506.861 58.5328 506.928 57.6827 507.3 56.9505C507.313 56.9275 507.329 56.9092 507.343 56.8844C507.134 56.8439 506.923 56.8182 506.711 56.7872C506.425 57.5391 505.858 58.1502 505.129 58.4914C504.4 58.8327 503.568 58.8772 502.807 58.6157C499.49 57.4616 497.305 56.7221 496.261 56.3714C496.154 56.3945 496.054 56.4178 495.971 56.4414C492.352 57.4482 491.713 61.9174 491.69 62.085C491.68 62.1511 491.67 62.2171 491.659 62.2829C491.616 62.5047 490.772 67.7927 495.317 74.426C498.088 78.469 504.409 84.7791 513.85 90.3632C518.862 93.3291 531.416 99.8251 540.908 104.715C541.183 104.811 541.444 104.945 541.681 105.113L543.58 106.093C547.597 108.16 550.922 109.874 552.723 110.825C558.76 114.026 592.348 129.71 593.776 130.378C593.941 130.455 594.101 130.541 594.257 130.635C595.462 131.323 596.767 131.818 598.126 132.1C601.66 132.787 603.293 131.195 604.215 129.937C604.615 129.476 604.907 128.932 605.07 128.344C605.232 127.756 605.262 127.139 605.156 126.538C604.653 123.954 601.637 121.583 600.523 120.892C600.09 120.628 599.73 120.261 599.472 119.825C599.214 119.389 599.067 118.897 599.044 118.391C599.02 117.885 599.121 117.381 599.338 116.923C599.554 116.465 599.88 116.067 600.286 115.764L612.374 106.76C612.428 106.645 612.451 106.517 612.44 106.39L612.44 106.388Z" fill="#8692D9" stroke="white"/>
<path d="M536.737 119.87C537.104 119.136 537.749 118.578 538.528 118.318C539.307 118.058 540.157 118.118 540.892 118.485L556.517 126.296C556.896 126.468 557.237 126.716 557.519 127.023C557.801 127.33 558.018 127.691 558.157 128.084C558.296 128.477 558.355 128.894 558.329 129.31C558.303 129.726 558.194 130.133 558.007 130.506C557.82 130.878 557.561 131.21 557.243 131.48C556.926 131.75 556.557 131.953 556.159 132.077C555.761 132.202 555.342 132.244 554.927 132.203C554.512 132.162 554.11 132.037 553.745 131.837L538.123 124.027C537.388 123.66 536.829 123.015 536.569 122.236C536.309 121.456 536.369 120.606 536.737 119.87ZM564.985 130.53L571.982 134.028C572.362 134.201 572.703 134.448 572.984 134.755C573.266 135.062 573.483 135.423 573.622 135.815C573.761 136.208 573.82 136.625 573.794 137.041C573.768 137.457 573.659 137.863 573.473 138.236C573.287 138.609 573.027 138.94 572.71 139.21C572.393 139.481 572.024 139.684 571.627 139.809C571.229 139.933 570.81 139.976 570.396 139.935C569.981 139.895 569.579 139.77 569.213 139.571L562.212 136.07C561.832 135.899 561.49 135.652 561.207 135.345C560.924 135.038 560.706 134.677 560.566 134.283C560.427 133.89 560.368 133.473 560.393 133.056C560.418 132.639 560.528 132.232 560.714 131.858C560.901 131.485 561.161 131.153 561.479 130.883C561.797 130.612 562.167 130.409 562.565 130.285C562.964 130.161 563.384 130.118 563.799 130.16C564.214 130.202 564.617 130.328 564.983 130.529L564.985 130.53ZM530.026 125.741L532.619 127.037C532.999 127.21 533.339 127.457 533.621 127.764C533.903 128.071 534.12 128.432 534.259 128.825C534.398 129.217 534.456 129.634 534.431 130.05C534.405 130.466 534.296 130.873 534.11 131.245C533.923 131.618 533.664 131.949 533.347 132.22C533.029 132.49 532.661 132.693 532.263 132.818C531.866 132.942 531.447 132.986 531.032 132.945C530.618 132.904 530.215 132.78 529.85 132.58L527.256 131.283C526.875 131.111 526.533 130.865 526.25 130.557C525.967 130.25 525.75 129.889 525.61 129.496C525.47 129.103 525.411 128.685 525.436 128.268C525.462 127.852 525.571 127.444 525.758 127.071C525.944 126.698 526.205 126.366 526.523 126.095C526.841 125.825 527.21 125.622 527.609 125.498C528.007 125.373 528.427 125.331 528.842 125.373C529.258 125.415 529.66 125.539 530.026 125.741ZM541.539 131.497L549.029 135.241C549.409 135.413 549.749 135.66 550.031 135.967C550.313 136.274 550.53 136.635 550.669 137.028C550.808 137.421 550.867 137.837 550.841 138.253C550.815 138.669 550.706 139.076 550.52 139.448C550.334 139.821 550.074 140.153 549.757 140.423C549.44 140.693 549.071 140.896 548.673 141.021C548.276 141.146 547.857 141.189 547.442 141.148C547.028 141.107 546.626 140.983 546.26 140.783L538.772 137.039C538.391 136.868 538.049 136.621 537.766 136.314C537.484 136.007 537.266 135.646 537.126 135.252C536.986 134.859 536.927 134.441 536.952 134.025C536.978 133.608 537.087 133.201 537.274 132.827C537.461 132.454 537.721 132.122 538.039 131.852C538.357 131.581 538.726 131.378 539.125 131.254C539.523 131.13 539.943 131.087 540.358 131.129C540.774 131.171 541.176 131.297 541.542 131.498L541.539 131.497ZM569.969 72.3131L578.876 70.8865C579.284 70.8058 579.705 70.8082 580.113 70.8936C580.52 70.9791 580.907 71.1458 581.248 71.3838C581.59 71.6218 581.88 71.9262 582.102 72.2789C582.323 72.6316 582.472 73.0253 582.538 73.4366C582.604 73.8478 582.586 74.2681 582.486 74.6724C582.386 75.0767 582.205 75.4566 581.955 75.7896C581.705 76.1226 581.391 76.4018 581.03 76.6105C580.67 76.8192 580.271 76.9531 579.858 77.0042L570.951 78.4308C570.154 78.5294 569.35 78.3151 568.708 77.8328C568.066 77.3506 567.636 76.6382 567.509 75.8454C567.382 75.0527 567.567 74.2416 568.026 73.5827C568.485 72.9239 569.181 72.4687 569.969 72.3131ZM558.672 74.2072L561.281 73.7883C561.691 73.7035 562.114 73.7027 562.524 73.7859C562.935 73.8691 563.324 74.0346 563.669 74.2724C564.014 74.5103 564.307 74.8155 564.53 75.1696C564.754 75.5238 564.903 75.9196 564.969 76.3331C565.036 76.7466 565.018 77.1693 564.916 77.5756C564.815 77.9819 564.632 78.3634 564.379 78.6971C564.126 79.0308 563.808 79.3098 563.444 79.5172C563.08 79.7246 562.678 79.8562 562.262 79.9039L559.657 80.3226C558.864 80.4154 558.065 80.1983 557.428 79.7165C556.79 79.2347 556.363 78.5254 556.236 77.7366C556.109 76.9478 556.292 76.1404 556.745 75.4828C557.199 74.8252 557.889 74.3683 558.672 74.2072ZM513.385 106.221C513.504 105.821 513.703 105.449 513.969 105.128C514.235 104.807 514.563 104.542 514.934 104.351C515.305 104.16 515.71 104.045 516.126 104.014C516.542 103.983 516.96 104.036 517.355 104.171C517.75 104.305 518.114 104.518 518.425 104.797C518.735 105.075 518.987 105.413 519.164 105.791C519.341 106.169 519.439 106.579 519.454 106.996C519.469 107.412 519.399 107.828 519.25 108.218L518.396 110.728C518.111 111.479 517.545 112.091 516.818 112.433C516.091 112.775 515.259 112.822 514.499 112.563C513.738 112.304 513.107 111.76 512.74 111.045C512.373 110.33 512.298 109.5 512.53 108.731L513.385 106.221Z" fill="#8692D9" stroke="white"/>
</svg>
