<svg width="1440" height="612" viewBox="0 0 1440 612" fill="none" xmlns="http://www.w3.org/2000/svg">
<mask id="mask0_24_105" style="mask-type:luminance" maskUnits="userSpaceOnUse" x="1071" y="229" width="387" height="383">
<path d="M1444.23 229.933L1071.29 242.999L1084.21 611.884L1457.16 598.818L1444.23 229.933Z" fill="white"/>
</mask>
<g mask="url(#mask0_24_105)">
<path d="M1392.66 597.92L1193.03 354.376C1188.88 349.31 1186.91 342.802 1187.55 336.284C1188.2 329.765 1191.41 323.77 1196.47 319.618L1281.79 249.678C1284.3 247.622 1287.19 246.081 1290.3 245.141C1293.4 244.201 1296.66 243.882 1299.89 244.202C1303.11 244.522 1306.25 245.474 1309.11 247.005C1311.97 248.536 1314.5 250.614 1316.55 253.123L1516.19 496.666C1520.34 501.732 1522.31 508.24 1521.66 514.758C1521.02 521.276 1517.81 527.271 1512.74 531.424L1427.42 601.363C1422.36 605.515 1415.85 607.485 1409.33 606.839C1402.81 606.193 1396.82 602.984 1392.66 597.919" fill="#1C3698"/>
<path d="M1509.89 533.766L1512.36 531.741C1523.13 522.914 1524.99 507.386 1516.53 497.061L1316.23 252.712C1307.77 242.385 1292.18 241.169 1281.41 249.995L1278.94 252.02L1509.89 533.766Z" fill="#F0F0F0"/>
<path d="M1213.73 374.644L1208.73 368.769L1209.23 368.361L1214.05 374.378L1213.73 374.644ZM1233.18 358.699L1228.29 352.738L1247.38 337.08L1252.27 343.048L1233.18 358.699ZM1271.37 327.398L1266.48 321.432L1285.57 305.779L1290.47 311.746L1271.37 327.398ZM1309.56 296.093L1304.66 290.126L1323.76 274.476L1328.65 280.442L1309.56 296.093Z" fill="#FEF4DB"/>
<path d="M1271.28 448.214L1271.29 448.224L1290.73 452.273L1288.38 447.811C1281.95 444.018 1275.51 440.225 1269.07 436.431C1263.6 425.143 1258.13 413.855 1252.66 402.568L1292.73 396.563L1288.97 390.099L1273.94 386.938L1272.42 384.318L1268.68 383.541L1270.19 386.149L1260.13 384.034C1259.64 383.191 1259.15 382.348 1258.66 381.506C1257.43 381.263 1256.19 381.02 1254.95 380.776L1256.39 383.247L1241.82 380.189C1239.55 375.507 1237.28 370.826 1235.01 366.147C1233.8 364.093 1229.73 357.789 1222.19 355.94C1220.62 355.556 1219 355.388 1217.38 355.439L1217.36 355.44L1217.35 355.458C1216.51 356.839 1215.85 358.328 1215.41 359.884C1213.28 367.355 1216.75 374.011 1217.93 376.074C1220.88 380.36 1223.82 384.645 1226.77 388.93L1222.22 403.109L1220.79 400.638L1219.58 404.229C1220.07 405.072 1220.56 405.915 1221.05 406.759L1217.92 416.546L1216.4 413.938L1215.22 417.575L1216.75 420.195L1212.06 434.819L1215.82 441.289L1240.86 409.429L1262.24 440.544C1262.21 440.514 1262.18 440.486 1262.14 440.458L1262.48 462.875C1263.38 464.291 1264.29 465.707 1265.19 467.123C1267.23 460.822 1269.26 454.522 1271.29 448.224L1271.28 448.214" fill="white"/>
<path d="M1358.16 598.217L1089.13 434.462C1083.54 431.056 1079.52 425.566 1077.98 419.201C1076.43 412.836 1077.47 406.116 1080.88 400.52L1138.25 306.269C1141.65 300.673 1147.14 296.659 1153.51 295.111C1159.87 293.562 1166.59 294.606 1172.19 298.012L1441.22 461.767C1443.99 463.453 1446.4 465.669 1448.32 468.287C1450.23 470.906 1451.61 473.876 1452.38 477.027C1453.14 480.179 1453.28 483.451 1452.79 486.656C1452.29 489.862 1451.16 492.938 1449.48 495.708L1392.11 589.959C1388.7 595.555 1383.21 599.569 1376.85 601.117C1370.48 602.665 1363.76 601.622 1358.17 598.216" fill="#2A46B2"/>
<path d="M1447.55 498.88L1449.21 496.15C1456.45 484.257 1453.07 468.984 1441.66 462.04L1171.75 297.741C1160.34 290.793 1145.22 294.81 1137.98 306.706L1136.32 309.438L1447.55 498.88Z" fill="#F0F0F0"/>
<path d="M1115.33 446.802L1108.75 442.78L1111.91 437.591L1118.5 441.602L1115.33 446.802ZM1131.33 420.513L1124.74 416.503L1137.58 395.41L1144.17 399.429L1131.33 420.513ZM1157.01 378.331L1150.42 374.321L1163.26 353.227L1169.85 357.242L1157.01 378.331ZM1182.69 336.146L1176.1 332.135L1188.94 311.041L1195.53 315.057L1182.69 336.146Z" fill="#FEF4DB"/>
<path d="M1278.15 489.466L1278.16 489.476L1297.96 491.014L1295.06 486.884L1274.45 478.06L1253.86 446.564L1292.84 435.496L1288.29 429.563L1272.98 428.35L1271.13 425.944L1267.32 425.651L1269.16 428.046L1258.91 427.232L1257.13 424.91L1253.35 424.66L1255.09 426.927L1240.25 425.746L1231.71 412.687C1230.26 410.808 1225.41 405.074 1217.7 404.202C1216.09 404.023 1214.46 404.062 1212.86 404.318L1212.84 404.319L1212.84 404.339C1212.18 405.817 1211.72 407.378 1211.47 408.978C1210.32 416.658 1214.6 422.824 1216.04 424.713C1219.51 428.588 1222.98 432.463 1226.44 436.337L1223.74 450.982L1222 448.715C1221.76 449.953 1221.51 451.191 1221.27 452.429L1223.05 454.749L1221.18 464.859L1219.34 462.467C1219.11 463.72 1218.88 464.972 1218.64 466.224L1220.49 468.628L1217.7 483.729L1222.25 489.662L1243.03 454.874L1268.21 483.01L1268.1 482.938C1269.16 490.334 1270.22 497.732 1271.29 505.131L1274.52 508.998C1275.73 502.491 1276.95 495.984 1278.16 489.476L1278.15 489.467" fill="white"/>
</g>
<mask id="mask1_24_105" style="mask-type:luminance" maskUnits="userSpaceOnUse" x="-59" y="0" width="374" height="370">
<path d="M314.937 0.37207H-58.3809V369.626H314.937V0.37207Z" fill="white"/>
</mask>
<g mask="url(#mask1_24_105)">
<path d="M60.829 37.1209L299.846 242.403C304.818 246.673 307.889 252.743 308.385 259.278C308.881 265.813 306.761 272.277 302.491 277.249L230.573 360.985C228.459 363.447 225.88 365.468 222.985 366.933C220.09 368.398 216.934 369.278 213.698 369.524C210.463 369.77 207.21 369.376 204.127 368.364C201.044 367.353 198.19 365.744 195.728 363.63L-43.29 158.349C-48.2615 154.079 -51.3332 148.009 -51.8292 141.474C-52.3252 134.939 -50.205 128.475 -45.935 123.503L25.983 39.7659C30.2532 34.7944 36.3234 31.7227 42.8582 31.2267C49.3931 30.7307 55.8574 32.8509 60.829 37.1209Z" fill="#1C3698"/>
<path d="M-43.518 120.69L-45.601 123.115C-54.677 133.683 -53.818 149.306 -43.684 158.01L196.123 363.971C206.258 372.671 221.831 371.164 230.908 360.598L232.991 358.173L-43.518 120.69Z" fill="white"/>
<path d="M275.933 226.029L281.878 230.95L281.46 231.438L275.66 226.348L275.933 226.029ZM259.541 245.119L265.392 250.147L249.304 268.888L243.444 263.858L259.541 245.119ZM227.35 282.596L233.201 287.625L217.114 306.365L211.25 301.336L227.35 282.596ZM195.16 320.076L201.021 325.105L184.921 343.843L179.07 338.814L195.16 320.076Z" fill="#FEF4DB"/>
<path d="M122.179 157.451L122.172 157.441L102.879 152.712L105.07 157.255C111.373 161.271 117.677 165.289 123.983 169.308C129.054 180.785 134.127 192.262 139.202 203.738L98.9321 208.338L102.463 214.932L117.378 218.617L118.81 221.291L122.526 222.199L121.099 219.538L131.082 222.005C131.543 222.865 132.004 223.724 132.463 224.584C133.692 224.87 134.922 225.156 136.152 225.444L134.802 222.923L149.258 226.493C151.363 231.253 153.466 236.012 155.568 240.77C156.705 242.864 160.554 249.308 168.03 251.421C169.589 251.858 171.2 252.082 172.819 252.088H172.841L172.851 252.07C173.745 250.719 174.451 249.253 174.951 247.713C177.335 240.319 174.104 233.543 172.993 231.438C170.198 227.05 167.403 222.662 164.608 218.276L169.65 204.259L171 206.78L172.329 203.233C171.868 202.373 171.407 201.512 170.948 200.652L174.428 190.976L175.855 193.637L177.155 190.042L175.723 187.368L180.923 172.912L177.392 166.312L151.236 197.293L130.944 165.436C130.976 165.467 131.01 165.496 131.044 165.525L131.495 143.103C130.637 141.655 129.781 140.208 128.928 138.761C126.674 144.989 124.421 151.216 122.168 157.442L122.18 157.452" fill="white"/>
<path d="M40.5691 4.43988L303.803 177.581C309.278 181.182 313.099 186.811 314.424 193.23C315.749 199.648 314.47 206.329 310.869 211.805L250.212 304.025C246.61 309.5 240.981 313.321 234.562 314.646C228.144 315.971 221.462 314.692 215.986 311.09L-47.2469 137.95C-49.958 136.167 -52.2914 133.867 -54.1138 131.182C-55.9362 128.497 -57.2119 125.48 -57.868 122.302C-58.5242 119.124 -58.5479 115.848 -57.9379 112.661C-57.3279 109.474 -56.0961 106.438 -54.3129 103.727L6.3441 11.5069C8.1273 8.79558 10.4271 6.46206 13.1121 4.63956C15.7971 2.81706 18.8149 1.54128 21.993 0.885041C25.1711 0.228808 28.4473 0.204979 31.6346 0.81492C34.8219 1.42486 37.8578 2.65662 40.5691 4.43988Z" fill="#2A46B2"/>
<path d="M-52.2738 100.627L-54.0298 103.298C-61.6858 114.936 -58.8418 130.323 -47.6808 137.666L216.419 311.379C227.582 318.722 242.836 315.238 250.491 303.6L252.248 300.929L-52.2738 100.627Z" fill="#F0F0F0"/>
<path d="M278.042 164.325L284.484 168.574L281.146 173.651L274.694 169.41L278.042 164.325ZM261.124 190.048L267.576 194.288L254 214.927L247.548 210.682L261.124 190.048ZM233.973 231.322L240.426 235.562L226.85 256.2L220.4 251.96L233.973 231.322ZM206.824 272.597L213.276 276.838L199.701 297.477L193.25 293.231L206.824 272.597Z" fill="#FEF4DB"/>
<path d="M116.755 115.968L116.748 115.958L97.0073 113.727L99.7603 117.954L120.06 127.498L139.544 159.708L100.189 169.408L104.531 175.499L119.795 177.252L121.554 179.721L125.354 180.148L123.601 177.69L133.818 178.863L135.518 181.247L139.287 181.629L137.627 179.302L152.421 181.002L160.5 194.357C161.891 196.287 166.531 202.189 174.216 203.331C175.819 203.567 177.445 203.585 179.052 203.384H179.073L179.08 203.364C179.794 201.911 180.308 200.367 180.607 198.776C182.03 191.137 177.963 184.829 176.591 182.884C173.258 178.888 169.927 174.893 166.598 170.898L169.811 156.351L171.47 158.678C171.76 157.449 172.049 156.22 172.337 154.991L170.637 152.609L172.855 142.567L174.608 145.025C174.886 143.78 175.164 142.536 175.442 141.293L173.68 138.824L176.995 123.824L172.653 117.733L150.655 151.782L126.469 122.771L126.577 122.847C125.773 115.415 124.97 107.982 124.167 100.547L121.067 96.5679C119.627 103.031 118.187 109.494 116.745 115.958L116.757 115.967" fill="white"/>
</g>
</svg>
