<svg width="163" height="38" viewBox="0 0 163 38" fill="none" xmlns="http://www.w3.org/2000/svg">
<mask id="mask0_16_876" style="mask-type:luminance" maskUnits="userSpaceOnUse" x="0" y="0" width="163" height="38">
<path d="M162.787 0H0V37.98H162.787V0Z" fill="white"/>
</mask>
<g mask="url(#mask0_16_876)">
<path d="M65.1439 18.979C65.1439 21.6689 64.3462 24.2983 62.8518 26.5348C61.3575 28.7713 59.2334 30.5144 56.7484 31.5438C54.2633 32.5731 51.5288 32.8425 48.8906 32.3177C46.2525 31.7929 43.8292 30.4977 41.9272 28.5957C40.0252 26.6937 38.7299 24.2704 38.2052 21.6323C37.6804 18.9941 37.9497 16.2596 38.9791 13.7745C40.0084 11.2895 41.7516 9.16543 43.9881 7.67104C46.2246 6.17665 48.854 5.37903 51.5439 5.37903C55.1508 5.37903 58.61 6.81188 61.1605 9.36238C63.711 11.9129 65.1439 15.3721 65.1439 18.979Z" fill="#FFD0CC"/>
<path d="M65.3509 18.979C65.3509 21.6689 64.5533 24.2983 63.0589 26.5348C61.5645 28.7713 59.4405 30.5144 56.9554 31.5438C54.4703 32.5731 51.7358 32.8425 49.0977 32.3177C46.4595 31.7929 44.0362 30.4977 42.1342 28.5957C40.2322 26.6937 38.937 24.2704 38.4122 21.6323C37.8874 18.9941 38.1568 16.2596 39.1861 13.7745C40.2155 11.2895 41.9586 9.16543 44.1951 7.67104C46.4316 6.17665 49.0611 5.37903 51.7509 5.37903C55.3578 5.37903 58.817 6.81188 61.3675 9.36238C63.918 11.9129 65.3509 15.3721 65.3509 18.979Z" fill="#FFD0CC"/>
<path d="M65.5589 18.979C65.5601 21.6692 64.7634 24.2993 63.2697 26.5366C61.7759 28.7739 59.6522 30.518 57.1671 31.5482C54.682 32.5785 51.9472 32.8485 49.3086 32.3243C46.67 31.8 44.2462 30.505 42.3437 28.6031C40.4411 26.7011 39.1454 24.2777 38.6204 21.6392C38.0954 19.0008 38.3646 16.2659 39.3941 13.7805C40.4236 11.2951 42.1671 9.17088 44.404 7.67647C46.6409 6.18206 49.2707 5.38461 51.9609 5.38501C55.5678 5.38501 59.0271 6.81786 61.5775 9.36836C64.128 11.9189 65.5609 15.3781 65.5609 18.985" fill="#FFD0CC"/>
<path d="M65.7659 18.979C65.7659 21.6689 64.9683 24.2983 63.4739 26.5348C61.9795 28.7713 59.8555 30.5144 57.3704 31.5438C54.8853 32.5731 52.1508 32.8425 49.5127 32.3177C46.8746 31.7929 44.4513 30.4977 42.5493 28.5957C40.6473 26.6937 39.352 24.2704 38.8272 21.6323C38.3025 18.9941 38.5718 16.2596 39.6012 13.7745C40.6305 11.2895 42.3737 9.16543 44.6102 7.67104C46.8467 6.17665 49.4761 5.37903 52.1659 5.37903C55.7729 5.37903 59.2321 6.81188 61.7826 9.36238C64.3331 11.9129 65.7659 15.3721 65.7659 18.979Z" fill="#FFD0CC"/>
<path d="M65.9739 18.979C65.9739 21.6689 65.1763 24.2983 63.6819 26.5348C62.1875 28.7713 60.0635 30.5144 57.5784 31.5438C55.0934 32.5731 52.3588 32.8425 49.7207 32.3177C47.0826 31.7929 44.6593 30.4977 42.7573 28.5957C40.8553 26.6937 39.56 24.2704 39.0353 21.6323C38.5105 18.9941 38.7798 16.2596 39.8092 13.7745C40.8385 11.2895 42.5817 9.16543 44.8182 7.67104C47.0547 6.17665 49.6841 5.37903 52.3739 5.37903C55.9809 5.37903 59.4401 6.81188 61.9906 9.36238C64.5411 11.9129 65.9739 15.3721 65.9739 18.979Z" fill="#FFD0CC"/>
<path d="M66.1761 18.979C66.1761 21.6689 65.3785 24.2983 63.8841 26.5348C62.3897 28.7713 60.2656 30.5144 57.7806 31.5438C55.2955 32.5731 52.561 32.8425 49.9229 32.3177C47.2847 31.7929 44.8614 30.4977 42.9594 28.5957C41.0574 26.6937 39.7622 24.2704 39.2374 21.6323C38.7126 18.9941 38.982 16.2596 40.0113 13.7745C41.0407 11.2895 42.7838 9.16543 45.0203 7.67104C47.2568 6.17665 49.8863 5.37903 52.5761 5.37903C56.183 5.37903 59.6422 6.81188 62.1927 9.36238C64.7432 11.9129 66.1761 15.3721 66.1761 18.979Z" fill="#FFD0CC"/>
<path d="M66.389 18.979C66.3902 21.6693 65.5934 24.2996 64.0995 26.537C62.6055 28.7745 60.4816 30.5185 57.9962 31.5486C55.5109 32.5787 52.7759 32.8486 50.1372 32.324C47.4985 31.7994 45.0747 30.504 43.1723 28.6017C41.27 26.6993 39.9746 24.2755 39.45 21.6368C38.9254 18.9981 39.1953 16.2631 40.2254 13.7777C41.2555 11.2924 42.9995 9.16845 45.237 7.67452C47.4744 6.18059 50.1046 5.38382 52.795 5.38501C56.4019 5.38501 59.8611 6.81786 62.4116 9.36836C64.9621 11.9189 66.395 15.3781 66.395 18.985" fill="#FFD0CC"/>
<path d="M66.596 18.979C66.596 21.6689 65.7984 24.2983 64.304 26.5348C62.8096 28.7713 60.6856 30.5144 58.2005 31.5438C55.7154 32.5731 52.9809 32.8425 50.3428 32.3177C47.7046 31.7929 45.2813 30.4977 43.3793 28.5957C41.4774 26.6937 40.1821 24.2704 39.6573 21.6323C39.1326 18.9941 39.4019 16.2596 40.4312 13.7745C41.4606 11.2895 43.2037 9.16543 45.4402 7.67104C47.6768 6.17665 50.3062 5.37903 52.996 5.37903C56.6029 5.37903 60.0622 6.81188 62.6127 9.36238C65.1632 11.9129 66.596 15.3721 66.596 18.979Z" fill="#FFD0CC"/>
<path d="M66.804 18.979C66.804 21.6689 66.0064 24.2983 64.512 26.5348C63.0176 28.7713 60.8936 30.5144 58.4085 31.5438C55.9234 32.5731 53.1889 32.8425 50.5508 32.3177C47.9126 31.7929 45.4894 30.4977 43.5874 28.5957C41.6854 26.6937 40.3901 24.2704 39.8653 21.6323C39.3406 18.9941 39.6099 16.2596 40.6392 13.7745C41.6686 11.2895 43.4117 9.16543 45.6483 7.67104C47.8848 6.17665 50.5142 5.37903 53.204 5.37903C56.811 5.37903 60.2702 6.81188 62.8207 9.36238C65.3712 11.9129 66.804 15.3721 66.804 18.979Z" fill="#FFD0CC"/>
<path d="M67.012 18.979C67.012 21.6689 66.2144 24.2983 64.72 26.5348C63.2256 28.7713 61.1016 30.5144 58.6165 31.5438C56.1314 32.5731 53.3969 32.8425 50.7588 32.3177C48.1207 31.7929 45.6974 30.4977 43.7954 28.5957C41.8934 26.6937 40.5981 24.2704 40.0733 21.6323C39.5486 18.9941 39.8179 16.2596 40.8473 13.7745C41.8766 11.2895 43.6198 9.16543 45.8563 7.67104C48.0928 6.17665 50.7222 5.37903 53.412 5.37903C57.019 5.37903 60.4782 6.81188 63.0287 9.36238C65.5792 11.9129 67.012 15.3721 67.012 18.979Z" fill="#FFD0CC"/>
<path d="M67.219 18.979C67.219 21.6689 66.4214 24.2983 64.927 26.5348C63.4326 28.7713 61.3086 30.5144 58.8235 31.5438C56.3385 32.5731 53.604 32.8425 50.9658 32.3177C48.3277 31.7929 45.9044 30.4977 44.0024 28.5957C42.1004 26.6937 40.8051 24.2704 40.2804 21.6323C39.7556 18.9941 40.0249 16.2596 41.0543 13.7745C42.0836 11.2895 43.8268 9.16543 46.0633 7.67104C48.2998 6.17665 50.9292 5.37903 53.619 5.37903C57.226 5.37903 60.6852 6.81188 63.2357 9.36238C65.7862 11.9129 67.219 15.3721 67.219 18.979Z" fill="#FFD0CC"/>
<path d="M67.4271 18.979C67.4271 21.6689 66.6294 24.2983 65.135 26.5348C63.6407 28.7713 61.5166 30.5144 59.0316 31.5438C56.5465 32.5731 53.812 32.8425 51.1738 32.3177C48.5357 31.7929 46.1124 30.4977 44.2104 28.5957C42.3084 26.6937 41.0131 24.2704 40.4884 21.6323C39.9636 18.9941 40.2329 16.2596 41.2623 13.7745C42.2916 11.2895 44.0348 9.16543 46.2713 7.67104C48.5078 6.17665 51.1372 5.37903 53.8271 5.37903C57.434 5.37903 60.8932 6.81188 63.4437 9.36238C65.9942 11.9129 67.4271 15.3721 67.4271 18.979Z" fill="#FFD0CC"/>
<path d="M67.6341 18.979C67.6341 21.6689 66.8365 24.2983 65.3421 26.5348C63.8477 28.7713 61.7237 30.5144 59.2386 31.5438C56.7535 32.5731 54.019 32.8425 51.3809 32.3177C48.7427 31.7929 46.3194 30.4977 44.4174 28.5957C42.5154 26.6937 41.2202 24.2704 40.6954 21.6323C40.1706 18.9941 40.44 16.2596 41.4693 13.7745C42.4987 11.2895 44.2418 9.16543 46.4783 7.67104C48.7148 6.17665 51.3443 5.37903 54.0341 5.37903C57.641 5.37903 61.1002 6.81188 63.6507 9.36238C66.2012 11.9129 67.6341 15.3721 67.6341 18.979Z" fill="#FFD0CC"/>
<path d="M67.8421 18.979C67.8433 21.6692 67.0466 24.2993 65.5529 26.5366C64.0591 28.7739 61.9354 30.518 59.4503 31.5482C56.9652 32.5785 54.2304 32.8485 51.5918 32.3243C48.9532 31.8 46.5294 30.505 44.6269 28.6031C42.7243 26.7011 41.4286 24.2777 40.9036 21.6392C40.3786 19.0008 40.6479 16.2659 41.6773 13.7805C42.7068 11.2951 44.4503 9.17088 46.6872 7.67647C48.9241 6.18206 51.5539 5.38461 54.2441 5.38501C57.851 5.38501 61.3103 6.81786 63.8607 9.36836C66.4112 11.9189 67.8441 15.3781 67.8441 18.985" fill="#FFD0CC"/>
<path d="M68.0491 18.979C68.0491 21.6689 67.2515 24.2983 65.7571 26.5348C64.2627 28.7713 62.1387 30.5144 59.6536 31.5438C57.1685 32.5731 54.434 32.8425 51.7959 32.3177C49.1578 31.7929 46.7345 30.4977 44.8325 28.5957C42.9305 26.6937 41.6352 24.2704 41.1104 21.6323C40.5857 18.9941 40.855 16.2596 41.8844 13.7745C42.9137 11.2895 44.6569 9.16543 46.8934 7.67104C49.1299 6.17665 51.7593 5.37903 54.4491 5.37903C58.0561 5.37903 61.5153 6.81188 64.0658 9.36238C66.6163 11.9129 68.0491 15.3721 68.0491 18.979Z" fill="#FFD0CC"/>
<path d="M68.2601 18.979C68.2613 21.6691 67.4646 24.2991 65.971 26.5364C64.4773 28.7737 62.3537 30.5178 59.8687 31.548C57.3837 32.5783 54.6491 32.8485 52.0105 32.3244C49.372 31.8003 46.9481 30.5055 45.0455 28.6038C43.1429 26.702 41.8471 24.2788 41.3218 21.6404C40.7966 19.0021 41.0656 16.2673 42.0947 13.7819C43.1239 11.2965 44.867 9.17209 47.1037 7.67744C49.3403 6.18279 51.97 5.38501 54.6601 5.38501C58.267 5.38501 61.7262 6.81786 64.2767 9.36836C66.8272 11.9189 68.2601 15.3781 68.2601 18.985" fill="#FFD0CC"/>
<path d="M68.4642 18.979C68.4642 21.6689 67.6665 24.2983 66.1722 26.5348C64.6778 28.7713 62.5537 30.5144 60.0687 31.5438C57.5836 32.5731 54.8491 32.8425 52.2109 32.3177C49.5728 31.7929 47.1495 30.4977 45.2475 28.5957C43.3455 26.6937 42.0502 24.2704 41.5255 21.6323C41.0007 18.9941 41.2701 16.2596 42.2994 13.7745C43.3288 11.2895 45.0719 9.16543 47.3084 7.67104C49.5449 6.17665 52.1743 5.37903 54.8642 5.37903C58.4711 5.37903 61.9303 6.81188 64.4808 9.36238C67.0313 11.9129 68.4642 15.3721 68.4642 18.979Z" fill="#FFD0CC"/>
<path d="M68.6712 18.979C68.6712 21.6689 67.8736 24.2983 66.3792 26.5348C64.8848 28.7713 62.7608 30.5144 60.2757 31.5438C57.7906 32.5731 55.0561 32.8425 52.418 32.3177C49.7798 31.7929 47.3565 30.4977 45.4545 28.5957C43.5526 26.6937 42.2573 24.2704 41.7325 21.6323C41.2078 18.9941 41.4771 16.2596 42.5064 13.7745C43.5358 11.2895 45.2789 9.16543 47.5154 7.67104C49.752 6.17665 52.3814 5.37903 55.0712 5.37903C58.6781 5.37903 62.1374 6.81188 64.6879 9.36238C67.2383 11.9129 68.6712 15.3721 68.6712 18.979Z" fill="#FFD0CC"/>
<path d="M68.8792 18.979C68.8792 21.6689 68.0816 24.2983 66.5872 26.5348C65.0928 28.7713 62.9688 30.5144 60.4837 31.5438C57.9986 32.5731 55.2641 32.8425 52.626 32.3177C49.9878 31.7929 47.5645 30.4977 45.6626 28.5957C43.7606 26.6937 42.4653 24.2704 41.9405 21.6323C41.4158 18.9941 41.6851 16.2596 42.7144 13.7745C43.7438 11.2895 45.4869 9.16543 47.7235 7.67104C49.96 6.17665 52.5894 5.37903 55.2792 5.37903C58.8861 5.37903 62.3454 6.81188 64.8959 9.36238C67.4464 11.9129 68.8792 15.3721 68.8792 18.979Z" fill="#FFD0CC"/>
<path d="M69.0858 18.979C69.0858 21.6689 68.2881 24.2983 66.7937 26.5348C65.2993 28.7713 63.1753 30.5144 60.6902 31.5438C58.2052 32.5731 55.4707 32.8425 52.8325 32.3177C50.1944 31.7929 47.7711 30.4977 45.8691 28.5957C43.9671 26.6937 42.6718 24.2704 42.1471 21.6323C41.6223 18.9941 41.8916 16.2596 42.921 13.7745C43.9503 11.2895 45.6935 9.16543 47.93 7.67104C50.1665 6.17665 52.7959 5.37903 55.4858 5.37903C59.0927 5.37903 62.5519 6.81188 65.1024 9.36238C67.6529 11.9129 69.0858 15.3721 69.0858 18.979Z" fill="#FFD0CC"/>
<path d="M69.2938 18.979C69.2938 21.6689 68.4961 24.2983 67.0017 26.5348C65.5074 28.7713 63.3833 30.5144 60.8983 31.5438C58.4132 32.5731 55.6787 32.8425 53.0405 32.3177C50.4024 31.7929 47.9791 30.4977 46.0771 28.5957C44.1751 26.6937 42.8798 24.2704 42.3551 21.6323C41.8303 18.9941 42.0996 16.2596 43.129 13.7745C44.1583 11.2895 45.9015 9.16543 48.138 7.67104C50.3745 6.17665 53.0039 5.37903 55.6938 5.37903C59.3007 5.37903 62.7599 6.81188 65.3104 9.36238C67.8609 11.9129 69.2938 15.3721 69.2938 18.979Z" fill="#FFD0CC"/>
<path d="M69.5018 18.979C69.5018 21.6689 68.7041 24.2983 67.2098 26.5348C65.7154 28.7713 63.5913 30.5144 61.1063 31.5438C58.6212 32.5731 55.8867 32.8425 53.2485 32.3177C50.6104 31.7929 48.1871 30.4977 46.2851 28.5957C44.3831 26.6937 43.0878 24.2704 42.5631 21.6323C42.0383 18.9941 42.3077 16.2596 43.337 13.7745C44.3664 11.2895 46.1095 9.16543 48.346 7.67104C50.5825 6.17665 53.2119 5.37903 55.9018 5.37903C59.5087 5.37903 62.9679 6.81188 65.5184 9.36238C68.0689 11.9129 69.5018 15.3721 69.5018 18.979Z" fill="#FFD0CC"/>
<path d="M69.7088 18.979C69.7088 21.6689 68.9112 24.2983 67.4168 26.5348C65.9224 28.7713 63.7984 30.5144 61.3133 31.5438C58.8282 32.5731 56.0937 32.8425 53.4556 32.3177C50.8174 31.7929 48.3941 30.4977 46.4921 28.5957C44.5901 26.6937 43.2949 24.2704 42.7701 21.6323C42.2454 18.9941 42.5147 16.2596 43.544 13.7745C44.5734 11.2895 46.3165 9.16543 48.553 7.67104C50.7895 6.17665 53.419 5.37903 56.1088 5.37903C59.7157 5.37903 63.175 6.81188 65.7254 9.36238C68.2759 11.9129 69.7088 15.3721 69.7088 18.979Z" fill="#FFD0CC"/>
<path d="M69.9168 18.979C69.9168 21.6689 69.1192 24.2983 67.6248 26.5348C66.1304 28.7713 64.0064 30.5144 61.5213 31.5438C59.0362 32.5731 56.3017 32.8425 53.6636 32.3177C51.0254 31.7929 48.6021 30.4977 46.7002 28.5957C44.7982 26.6937 43.5029 24.2704 42.9781 21.6323C42.4534 18.9941 42.7227 16.2596 43.752 13.7745C44.7814 11.2895 46.5245 9.16543 48.761 7.67104C50.9976 6.17665 53.627 5.37903 56.3168 5.37903C59.9237 5.37903 63.383 6.81188 65.9335 9.36238C68.484 11.9129 69.9168 15.3721 69.9168 18.979Z" fill="#FFD0CC"/>
<path d="M70.1258 18.979C70.127 21.6691 69.3304 24.2991 67.8367 26.5364C66.343 28.7737 64.2194 30.5178 61.7344 31.548C59.2495 32.5783 56.5148 32.8485 53.8762 32.3244C51.2377 31.8003 48.8139 30.5055 46.9113 28.6038C45.0087 26.702 43.7128 24.2788 43.1875 21.6404C42.6623 19.0021 42.9313 16.2673 43.9605 13.7819C44.9896 11.2965 46.7328 9.17209 48.9694 7.67744C51.206 6.18279 53.8357 5.38501 56.5258 5.38501C60.1317 5.38501 63.59 6.81704 66.1403 9.36624C68.6906 11.9154 70.1242 15.3731 70.1258 18.979Z" fill="#FFD0CC"/>
<path d="M70.3318 18.979C70.3318 21.6689 69.5342 24.2983 68.0398 26.5348C66.5454 28.7713 64.4214 30.5144 61.9363 31.5438C59.4513 32.5731 56.7168 32.8425 54.0786 32.3177C51.4405 31.7929 49.0172 30.4977 47.1152 28.5957C45.2132 26.6937 43.9179 24.2704 43.3932 21.6323C42.8684 18.9941 43.1377 16.2596 44.1671 13.7745C45.1964 11.2895 46.9396 9.16543 49.1761 7.67104C51.4126 6.17665 54.042 5.37903 56.7318 5.37903C60.3388 5.37903 63.798 6.81188 66.3485 9.36238C68.899 11.9129 70.3318 15.3721 70.3318 18.979Z" fill="#FFD0CC"/>
<path d="M70.5389 18.979C70.5389 21.6689 69.7412 24.2983 68.2469 26.5348C66.7525 28.7713 64.6284 30.5144 62.1434 31.5438C59.6583 32.5731 56.9238 32.8425 54.2856 32.3177C51.6475 31.7929 49.2242 30.4977 47.3222 28.5957C45.4202 26.6937 44.125 24.2704 43.6002 21.6323C43.0754 18.9941 43.3448 16.2596 44.3741 13.7745C45.4035 11.2895 47.1466 9.16543 49.3831 7.67104C51.6196 6.17665 54.249 5.37903 56.9389 5.37903C60.5458 5.37903 64.005 6.81188 66.5555 9.36238C69.106 11.9129 70.5389 15.3721 70.5389 18.979Z" fill="#FFD0CC"/>
<path d="M70.7469 18.979C70.7469 21.6689 69.9493 24.2983 68.4549 26.5348C66.9605 28.7713 64.8365 30.5144 62.3514 31.5438C59.8663 32.5731 57.1318 32.8425 54.4937 32.3177C51.8555 31.7929 49.4322 30.4977 47.5302 28.5957C45.6282 26.6937 44.333 24.2704 43.8082 21.6323C43.2834 18.9941 43.5528 16.2596 44.5821 13.7745C45.6115 11.2895 47.3546 9.16543 49.5911 7.67104C51.8276 6.17665 54.4571 5.37903 57.1469 5.37903C60.7538 5.37903 64.213 6.81188 66.7635 9.36238C69.314 11.9129 70.7469 15.3721 70.7469 18.979Z" fill="#FFD0CC"/>
<path d="M70.9539 18.979C70.9539 21.6689 70.1563 24.2983 68.6619 26.5348C67.1675 28.7713 65.0435 30.5144 62.5584 31.5438C60.0733 32.5731 57.3388 32.8425 54.7007 32.3177C52.0625 31.7929 49.6393 30.4977 47.7373 28.5957C45.8353 26.6937 44.54 24.2704 44.0152 21.6323C43.4905 18.9941 43.7598 16.2596 44.7892 13.7745C45.8185 11.2895 47.5616 9.16543 49.7982 7.67104C52.0347 6.17665 54.6641 5.37903 57.3539 5.37903C60.9609 5.37903 64.4201 6.81188 66.9706 9.36238C69.5211 11.9129 70.9539 15.3721 70.9539 18.979Z" fill="#FFD0CC"/>
<path d="M71.1619 18.979C71.1619 21.6689 70.3643 24.2983 68.8699 26.5348C67.3755 28.7713 65.2515 30.5144 62.7664 31.5438C60.2813 32.5731 57.5468 32.8425 54.9087 32.3177C52.2705 31.7929 49.8473 30.4977 47.9453 28.5957C46.0433 26.6937 44.748 24.2704 44.2232 21.6323C43.6985 18.9941 43.9678 16.2596 44.9972 13.7745C46.0265 11.2895 47.7697 9.16543 50.0062 7.67104C52.2427 6.17665 54.8721 5.37903 57.5619 5.37903C61.1689 5.37903 64.6281 6.81188 67.1786 9.36238C69.7291 11.9129 71.1619 15.3721 71.1619 18.979Z" fill="#FFD0CC"/>
<path d="M71.369 18.979C71.369 21.6689 70.5713 24.2983 69.0769 26.5348C67.5826 28.7713 65.4585 30.5144 62.9734 31.5438C60.4884 32.5731 57.7539 32.8425 55.1157 32.3177C52.4776 31.7929 50.0543 30.4977 48.1523 28.5957C46.2503 26.6937 44.955 24.2704 44.4303 21.6323C43.9055 18.9941 44.1748 16.2596 45.2042 13.7745C46.2335 11.2895 47.9767 9.16543 50.2132 7.67104C52.4497 6.17665 55.0791 5.37903 57.769 5.37903C61.3759 5.37903 64.8351 6.81188 67.3856 9.36238C69.9361 11.9129 71.369 15.3721 71.369 18.979Z" fill="#FFD0CC"/>
<path d="M71.577 18.979C71.577 21.6689 70.7793 24.2983 69.2849 26.5348C67.7906 28.7713 65.6665 30.5144 63.1815 31.5438C60.6964 32.5731 57.9619 32.8425 55.3237 32.3177C52.6856 31.7929 50.2623 30.4977 48.3603 28.5957C46.4583 26.6937 45.163 24.2704 44.6383 21.6323C44.1135 18.9941 44.3828 16.2596 45.4122 13.7745C46.4415 11.2895 48.1847 9.16543 50.4212 7.67104C52.6577 6.17665 55.2871 5.37903 57.977 5.37903C61.5839 5.37903 65.0431 6.81188 67.5936 9.36238C70.1441 11.9129 71.577 15.3721 71.577 18.979Z" fill="#FFD0CC"/>
<path d="M71.784 18.979C71.784 21.6689 70.9864 24.2983 69.492 26.5348C67.9976 28.7713 65.8736 30.5144 63.3885 31.5438C60.9034 32.5731 58.1689 32.8425 55.5308 32.3177C52.8926 31.7929 50.4693 30.4977 48.5673 28.5957C46.6653 26.6937 45.3701 24.2704 44.8453 21.6323C44.3206 18.9941 44.5899 16.2596 45.6192 13.7745C46.6486 11.2895 48.3917 9.16543 50.6282 7.67104C52.8647 6.17665 55.4942 5.37903 58.184 5.37903C61.7909 5.37903 65.2501 6.81188 67.8006 9.36238C70.3511 11.9129 71.784 15.3721 71.784 18.979Z" fill="#FFD0CC"/>
<path d="M71.992 18.979C71.9932 21.6691 71.1966 24.2991 69.7029 26.5364C68.2092 28.7737 66.0856 30.5178 63.6007 31.548C61.1157 32.5783 58.381 32.8485 55.7424 32.3244C53.1039 31.8003 50.6801 30.5055 48.7775 28.6038C46.8749 26.702 45.579 24.2788 45.0538 21.6404C44.5285 19.0021 44.7975 16.2673 45.8267 13.7819C46.8558 11.2965 48.599 9.17209 50.8356 7.67744C53.0723 6.18279 55.7019 5.38501 58.392 5.38501C61.9989 5.38501 65.4582 6.81786 68.0086 9.36836C70.5591 11.9189 71.992 15.3781 71.992 18.985" fill="#FFD0CC"/>
<path d="M72.2 18.979C72.2 21.6689 71.4024 24.2983 69.908 26.5348C68.4136 28.7713 66.2896 30.5144 63.8045 31.5438C61.3194 32.5731 58.5849 32.8425 55.9468 32.3177C53.3086 31.7929 50.8853 30.4977 48.9834 28.5957C47.0814 26.6937 45.7861 24.2704 45.2613 21.6323C44.7366 18.9941 45.0059 16.2596 46.0352 13.7745C47.0646 11.2895 48.8077 9.16543 51.0443 7.67104C53.2808 6.17665 55.9102 5.37903 58.6 5.37903C62.207 5.37903 65.6662 6.81188 68.2167 9.36238C70.7672 11.9129 72.2 15.3721 72.2 18.979Z" fill="#FFD0CC"/>
<path d="M72.407 18.979C72.4082 21.6692 71.6116 24.2993 70.1178 26.5366C68.624 28.7739 66.5003 30.518 64.0152 31.5482C61.5301 32.5785 58.7953 32.8485 56.1568 32.3243C53.5182 31.8 51.0943 30.505 49.1918 28.6031C47.2893 26.7011 45.9936 24.2777 45.4686 21.6392C44.9435 19.0008 45.2128 16.2659 46.2423 13.7805C47.2718 11.2951 49.0152 9.17088 51.2521 7.67647C53.489 6.18206 56.1189 5.38461 58.809 5.38501C62.416 5.38501 65.8752 6.81786 68.4257 9.36836C70.9762 11.9189 72.409 15.3781 72.409 18.985" fill="#FFD0CC"/>
<path d="M72.615 18.979C72.615 21.6689 71.8174 24.2983 70.323 26.5348C68.8286 28.7713 66.7046 30.5144 64.2195 31.5438C61.7345 32.5731 59 32.8425 56.3618 32.3177C53.7237 31.7929 51.3004 30.4977 49.3984 28.5957C47.4964 26.6937 46.2011 24.2704 45.6764 21.6323C45.1516 18.9941 45.4209 16.2596 46.4503 13.7745C47.4796 11.2895 49.2228 9.16543 51.4593 7.67104C53.6958 6.17665 56.3252 5.37903 59.015 5.37903C62.622 5.37903 66.0812 6.81188 68.6317 9.36238C71.1822 11.9129 72.615 15.3721 72.615 18.979Z" fill="#FFD0CC"/>
<path d="M72.8221 18.979C72.8221 21.6689 72.0245 24.2983 70.5301 26.5348C69.0357 28.7713 66.9116 30.5144 64.4266 31.5438C61.9415 32.5731 59.207 32.8425 56.5688 32.3177C53.9307 31.7929 51.5074 30.4977 49.6054 28.5957C47.7034 26.6937 46.4082 24.2704 45.8834 21.6323C45.3586 18.9941 45.628 16.2596 46.6573 13.7745C47.6867 11.2895 49.4298 9.16543 51.6663 7.67104C53.9028 6.17665 56.5322 5.37903 59.2221 5.37903C62.829 5.37903 66.2882 6.81188 68.8387 9.36238C71.3892 11.9129 72.8221 15.3721 72.8221 18.979Z" fill="#FFD0CC"/>
<path d="M73.0291 18.979C73.0291 21.6689 72.2315 24.2983 70.7371 26.5348C69.2427 28.7713 67.1187 30.5144 64.6336 31.5438C62.1485 32.5731 59.414 32.8425 56.7759 32.3177C54.1377 31.7929 51.7144 30.4977 49.8125 28.5957C47.9105 26.6937 46.6152 24.2704 46.0904 21.6323C45.5657 18.9941 45.835 16.2596 46.8643 13.7745C47.8937 11.2895 49.6368 9.16543 51.8733 7.67104C54.1099 6.17665 56.7393 5.37903 59.4291 5.37903C63.036 5.37903 66.4953 6.81188 69.0458 9.36238C71.5963 11.9129 73.0291 15.3721 73.0291 18.979Z" fill="#FFD0CC"/>
<path d="M73.2371 18.979C73.2371 21.6689 72.4395 24.2983 70.9451 26.5348C69.4507 28.7713 67.3267 30.5144 64.8416 31.5438C62.3565 32.5731 59.622 32.8425 56.9839 32.3177C54.3457 31.7929 51.9225 30.4977 50.0205 28.5957C48.1185 26.6937 46.8232 24.2704 46.2984 21.6323C45.7737 18.9941 46.043 16.2596 47.0724 13.7745C48.1017 11.2895 49.8449 9.16543 52.0814 7.67104C54.3179 6.17665 56.9473 5.37903 59.6371 5.37903C63.2441 5.37903 66.7033 6.81188 69.2538 9.36238C71.8043 11.9129 73.2371 15.3721 73.2371 18.979Z" fill="#FFD0CC"/>
<path d="M73.4441 18.979C73.4441 21.6689 72.6465 24.2983 71.1521 26.5348C69.6577 28.7713 67.5337 30.5144 65.0486 31.5438C62.5636 32.5731 59.8291 32.8425 57.1909 32.3177C54.5528 31.7929 52.1295 30.4977 50.2275 28.5957C48.3255 26.6937 47.0302 24.2704 46.5055 21.6323C45.9807 18.9941 46.25 16.2596 47.2794 13.7745C48.3087 11.2895 50.0519 9.16543 52.2884 7.67104C54.5249 6.17665 57.1543 5.37903 59.8442 5.37903C63.4511 5.37903 66.9103 6.81188 69.4608 9.36238C72.0113 11.9129 73.4441 15.3721 73.4441 18.979Z" fill="#FFD0CC"/>
<path d="M73.6522 18.979C73.6522 21.6689 72.8545 24.2983 71.3601 26.5348C69.8658 28.7713 67.7417 30.5144 65.2566 31.5438C62.7716 32.5731 60.0371 32.8425 57.3989 32.3177C54.7608 31.7929 52.3375 30.4977 50.4355 28.5957C48.5335 26.6937 47.2382 24.2704 46.7135 21.6323C46.1887 18.9941 46.458 16.2596 47.4874 13.7745C48.5167 11.2895 50.2599 9.16543 52.4964 7.67104C54.7329 6.17665 57.3623 5.37903 60.0522 5.37903C63.6591 5.37903 67.1183 6.81188 69.6688 9.36238C72.2193 11.9129 73.6522 15.3721 73.6522 18.979Z" fill="#FFD0CC"/>
<path d="M73.8582 18.979C73.8594 21.6691 73.0628 24.2991 71.5691 26.5364C70.0754 28.7737 67.9518 30.5178 65.4669 31.548C62.9819 32.5783 60.2472 32.8485 57.6087 32.3244C54.9701 31.8003 52.5463 30.5055 50.6437 28.6038C48.7411 26.702 47.4452 24.2788 46.92 21.6404C46.3947 19.0021 46.6637 16.2673 47.6929 13.7819C48.722 11.2965 50.4652 9.17209 52.7018 7.67744C54.9385 6.18279 57.5681 5.38501 60.2582 5.38501C63.8651 5.38501 67.3244 6.81786 69.8749 9.36836C72.4254 11.9189 73.8582 15.3781 73.8582 18.985" fill="#FFD0CC"/>
<path d="M74.0672 18.979C74.0672 21.6689 73.2696 24.2983 71.7752 26.5348C70.2808 28.7713 68.1568 30.5144 65.6717 31.5438C63.1866 32.5731 60.4521 32.8425 57.814 32.3177C55.1758 31.7929 52.7525 30.4977 50.8505 28.5957C48.9485 26.6937 47.6533 24.2704 47.1285 21.6323C46.6038 18.9941 46.8731 16.2596 47.9024 13.7745C48.9318 11.2895 50.6749 9.16543 52.9114 7.67104C55.1479 6.17665 57.7774 5.37903 60.4672 5.37903C64.0741 5.37903 67.5333 6.81188 70.0838 9.36238C72.6343 11.9129 74.0672 15.3721 74.0672 18.979Z" fill="#FFD0CC"/>
<path d="M74.2737 18.979C74.2737 21.6689 73.4761 24.2983 71.9817 26.5348C70.4873 28.7713 68.3633 30.5144 65.8782 31.5438C63.3932 32.5731 60.6587 32.8425 58.0205 32.3177C55.3824 31.7929 52.9591 30.4977 51.0571 28.5957C49.1551 26.6937 47.8598 24.2704 47.3351 21.6323C46.8103 18.9941 47.0796 16.2596 48.109 13.7745C49.1383 11.2895 50.8815 9.16543 53.118 7.67104C55.3545 6.17665 57.9839 5.37903 60.6737 5.37903C64.2807 5.37903 67.7399 6.81188 70.2904 9.36238C72.8409 11.9129 74.2737 15.3721 74.2737 18.979Z" fill="#FFD0CC"/>
<path d="M74.4817 18.979C74.4829 21.6692 73.6863 24.2993 72.1925 26.5366C70.6988 28.7739 68.575 30.518 66.0899 31.5482C63.6049 32.5785 60.8701 32.8485 58.2315 32.3243C55.5929 31.8 53.169 30.505 51.2665 28.6031C49.364 26.7011 48.0683 24.2777 47.5433 21.6392C47.0182 19.0008 47.2875 16.2659 48.317 13.7805C49.3465 11.2951 51.0899 9.17088 53.3268 7.67647C55.5637 6.18206 58.1936 5.38461 60.8837 5.38501C64.4907 5.38501 67.9499 6.81786 70.5004 9.36836C73.0509 11.9189 74.4837 15.3781 74.4837 18.985" fill="#FFD0CC"/>
<path d="M74.6898 18.979C74.6909 21.6692 73.8943 24.2993 72.4005 26.5366C70.9068 28.7739 68.783 30.518 66.2979 31.5482C63.8129 32.5785 61.0781 32.8485 58.4395 32.3243C55.8009 31.8 53.377 30.505 51.4745 28.6031C49.572 26.7011 48.2763 24.2777 47.7513 21.6392C47.2262 19.0008 47.4955 16.2659 48.525 13.7805C49.5545 11.2951 51.2979 9.17088 53.5348 7.67647C55.7717 6.18206 58.4016 5.38461 61.0918 5.38501C64.6987 5.38501 68.1579 6.81786 70.7084 9.36836C73.2589 11.9189 74.6918 15.3781 74.6918 18.985" fill="#FFD0CC"/>
<path d="M74.8968 18.979C74.8968 21.6689 74.0992 24.2983 72.6048 26.5348C71.1104 28.7713 68.9864 30.5144 66.5013 31.5438C64.0162 32.5731 61.2817 32.8425 58.6436 32.3177C56.0054 31.7929 53.5821 30.4977 51.6801 28.5957C49.7781 26.6937 48.4829 24.2704 47.9581 21.6323C47.4333 18.9941 47.7027 16.2596 48.732 13.7745C49.7614 11.2895 51.5045 9.16543 53.741 7.67104C55.9775 6.17665 58.607 5.37903 61.2968 5.37903C64.9037 5.37903 68.3629 6.81188 70.9134 9.36238C73.4639 11.9129 74.8968 15.3721 74.8968 18.979Z" fill="#FFD0CC"/>
<path d="M75.1048 18.979C75.1048 21.6689 74.3072 24.2983 72.8128 26.5348C71.3184 28.7713 69.1944 30.5144 66.7093 31.5438C64.2242 32.5731 61.4897 32.8425 58.8516 32.3177C56.2134 31.7929 53.7901 30.4977 51.8881 28.5957C49.9861 26.6937 48.6909 24.2704 48.1661 21.6323C47.6414 18.9941 47.9107 16.2596 48.94 13.7745C49.9694 11.2895 51.7125 9.16543 53.949 7.67104C56.1855 6.17665 58.815 5.37903 61.5048 5.37903C65.1117 5.37903 68.5709 6.81188 71.1214 9.36238C73.6719 11.9129 75.1048 15.3721 75.1048 18.979Z" fill="#FFD0CC"/>
<path d="M75.3118 18.979C75.3118 21.6689 74.5142 24.2983 73.0198 26.5348C71.5254 28.7713 69.4014 30.5144 66.9163 31.5438C64.4312 32.5731 61.6967 32.8425 59.0586 32.3177C56.4204 31.7929 53.9972 30.4977 52.0952 28.5957C50.1932 26.6937 48.8979 24.2704 48.3731 21.6323C47.8484 18.9941 48.1177 16.2596 49.1471 13.7745C50.1764 11.2895 51.9196 9.16543 54.1561 7.67104C56.3926 6.17665 59.022 5.37903 61.7118 5.37903C65.3188 5.37903 68.778 6.81188 71.3285 9.36238C73.879 11.9129 75.3118 15.3721 75.3118 18.979Z" fill="#FFD0CC"/>
<path d="M75.5198 18.979C75.5198 21.6689 74.7222 24.2983 73.2278 26.5348C71.7334 28.7713 69.6094 30.5144 67.1243 31.5438C64.6392 32.5731 61.9047 32.8425 59.2666 32.3177C56.6285 31.7929 54.2052 30.4977 52.3032 28.5957C50.4012 26.6937 49.1059 24.2704 48.5812 21.6323C48.0564 18.9941 48.3257 16.2596 49.3551 13.7745C50.3844 11.2895 52.1276 9.16543 54.3641 7.67104C56.6006 6.17665 59.23 5.37903 61.9198 5.37903C65.5268 5.37903 68.986 6.81188 71.5365 9.36238C74.087 11.9129 75.5198 15.3721 75.5198 18.979Z" fill="#FFD0CC"/>
<path d="M75.7239 18.979C75.7239 21.6689 74.9263 24.2983 73.4319 26.5348C71.9375 28.7713 69.8135 30.5144 67.3284 31.5438C64.8434 32.5731 62.1088 32.8425 59.4707 32.3177C56.8326 31.7929 54.4093 30.4977 52.5073 28.5957C50.6053 26.6937 49.31 24.2704 48.7853 21.6323C48.2605 18.9941 48.5298 16.2596 49.5592 13.7745C50.5885 11.2895 52.3317 9.16543 54.5682 7.67104C56.8047 6.17665 59.4341 5.37903 62.1239 5.37903C65.7309 5.37903 69.1901 6.81188 71.7406 9.36238C74.2911 11.9129 75.7239 15.3721 75.7239 18.979Z" fill="#FFD0CC"/>
<path d="M75.9349 18.979C75.9349 21.6689 75.1372 24.2983 73.6429 26.5348C72.1485 28.7713 70.0244 30.5144 67.5394 31.5438C65.0543 32.5731 62.3198 32.8425 59.6816 32.3177C57.0435 31.7929 54.6202 30.4977 52.7182 28.5957C50.8162 26.6937 49.5209 24.2704 48.9962 21.6323C48.4714 18.9941 48.7408 16.2596 49.7701 13.7745C50.7995 11.2895 52.5426 9.16543 54.7791 7.67104C57.0156 6.17665 59.645 5.37903 62.3349 5.37903C65.9418 5.37903 69.401 6.81188 71.9515 9.36238C74.502 11.9129 75.9349 15.3721 75.9349 18.979Z" fill="#FFD0CC"/>
<path d="M76.1419 18.979C76.1419 21.6689 75.3443 24.2983 73.8499 26.5348C72.3555 28.7713 70.2315 30.5144 67.7464 31.5438C65.2613 32.5731 62.5268 32.8425 59.8887 32.3177C57.2505 31.7929 54.8272 30.4977 52.9252 28.5957C51.0232 26.6937 49.728 24.2704 49.2032 21.6323C48.6785 18.9941 48.9478 16.2596 49.9771 13.7745C51.0065 11.2895 52.7496 9.16543 54.9861 7.67104C57.2227 6.17665 59.8521 5.37903 62.5419 5.37903C66.1488 5.37903 69.6081 6.81188 72.1586 9.36238C74.709 11.9129 76.1419 15.3721 76.1419 18.979Z" fill="#FFD0CC"/>
<path d="M76.3489 18.979C76.3489 21.6689 75.5513 24.2983 74.0569 26.5348C72.5625 28.7713 70.4385 30.5144 67.9534 31.5438C65.4684 32.5731 62.7338 32.8425 60.0957 32.3177C57.4576 31.7929 55.0343 30.4977 53.1323 28.5957C51.2303 26.6937 49.935 24.2704 49.4103 21.6323C48.8855 18.9941 49.1548 16.2596 50.1842 13.7745C51.2135 11.2895 52.9567 9.16543 55.1932 7.67104C57.4297 6.17665 60.0591 5.37903 62.7489 5.37903C66.3559 5.37903 69.8151 6.81188 72.3656 9.36238C74.9161 11.9129 76.3489 15.3721 76.3489 18.979Z" fill="#FFD0CC"/>
<path d="M76.5569 18.979C76.5569 21.6689 75.7593 24.2983 74.2649 26.5348C72.7705 28.7713 70.6465 30.5144 68.1614 31.5438C65.6764 32.5731 62.9419 32.8425 60.3037 32.3177C57.6656 31.7929 55.2423 30.4977 53.3403 28.5957C51.4383 26.6937 50.143 24.2704 49.6183 21.6323C49.0935 18.9941 49.3628 16.2596 50.3922 13.7745C51.4215 11.2895 53.1647 9.16543 55.4012 7.67104C57.6377 6.17665 60.2671 5.37903 62.9569 5.37903C66.5639 5.37903 70.0231 6.81188 72.5736 9.36238C75.1241 11.9129 76.5569 15.3721 76.5569 18.979Z" fill="#FFD0CC"/>
<path d="M76.764 18.979C76.7652 21.6692 75.9685 24.2993 74.4747 26.5366C72.981 28.7739 70.8573 30.518 68.3722 31.5482C65.8871 32.5785 63.1523 32.8485 60.5137 32.3243C57.8751 31.8 55.4512 30.505 53.5487 28.6031C51.6462 26.7011 50.3505 24.2777 49.8255 21.6392C49.3005 19.0008 49.5697 16.2659 50.5992 13.7805C51.6287 11.2951 53.3721 9.17088 55.609 7.67647C57.846 6.18206 60.4758 5.38461 63.166 5.38501C66.7729 5.38501 70.2321 6.81786 72.7826 9.36836C75.3331 11.9189 76.766 15.3781 76.766 18.985" fill="#FFD0CC"/>
<path d="M76.972 18.979C76.972 21.6689 76.1744 24.2983 74.68 26.5348C73.1856 28.7713 71.0615 30.5144 68.5765 31.5438C66.0914 32.5731 63.3569 32.8425 60.7188 32.3177C58.0806 31.7929 55.6573 30.4977 53.7553 28.5957C51.8533 26.6937 50.5581 24.2704 50.0333 21.6323C49.5085 18.9941 49.7779 16.2596 50.8072 13.7745C51.8366 11.2895 53.5797 9.16543 55.8162 7.67104C58.0527 6.17665 60.6821 5.37903 63.372 5.37903C66.9789 5.37903 70.4381 6.81188 72.9886 9.36238C75.5391 11.9129 76.972 15.3721 76.972 18.979Z" fill="#FFD0CC"/>
<path d="M77.179 18.979C77.179 21.6689 76.3814 24.2983 74.887 26.5348C73.3926 28.7713 71.2686 30.5144 68.7835 31.5438C66.2984 32.5731 63.5639 32.8425 60.9258 32.3177C58.2876 31.7929 55.8643 30.4977 53.9624 28.5957C52.0604 26.6937 50.7651 24.2704 50.2403 21.6323C49.7156 18.9941 49.9849 16.2596 51.0142 13.7745C52.0436 11.2895 53.7867 9.16543 56.0233 7.67104C58.2598 6.17665 60.8892 5.37903 63.579 5.37903C67.186 5.37903 70.6452 6.81188 73.1957 9.36238C75.7462 11.9129 77.179 15.3721 77.179 18.979Z" fill="#FFD0CC"/>
<path d="M77.387 18.979C77.387 21.6689 76.5894 24.2983 75.095 26.5348C73.6006 28.7713 71.4766 30.5144 68.9915 31.5438C66.5064 32.5731 63.7719 32.8425 61.1338 32.3177C58.4956 31.7929 56.0724 30.4977 54.1704 28.5957C52.2684 26.6937 50.9731 24.2704 50.4483 21.6323C49.9236 18.9941 50.1929 16.2596 51.2223 13.7745C52.2516 11.2895 53.9948 9.16543 56.2313 7.67104C58.4678 6.17665 61.0972 5.37903 63.787 5.37903C67.394 5.37903 70.8532 6.81188 73.4037 9.36238C75.9542 11.9129 77.387 15.3721 77.387 18.979Z" fill="#FFD0CC"/>
<path d="M77.5901 18.979C77.5901 21.6689 76.7925 24.2983 75.2981 26.5348C73.8037 28.7713 71.6797 30.5144 69.1946 31.5438C66.7096 32.5731 63.9751 32.8425 61.3369 32.3177C58.6988 31.7929 56.2755 30.4977 54.3735 28.5957C52.4715 26.6937 51.1762 24.2704 50.6515 21.6323C50.1267 18.9941 50.396 16.2596 51.4254 13.7745C52.4547 11.2895 54.1979 9.16543 56.4344 7.67104C58.6709 6.17665 61.3003 5.37903 63.9901 5.37903C67.5971 5.37903 71.0563 6.81188 73.6068 9.36238C76.1573 11.9129 77.5901 15.3721 77.5901 18.979Z" fill="#FFD0CC"/>
<path d="M77.8021 18.979C77.8032 21.6693 77.0065 24.2996 75.5125 26.537C74.0186 28.7745 71.8946 30.5185 69.4093 31.5486C66.924 32.5787 64.189 32.8486 61.5503 32.324C58.9116 31.7994 56.4878 30.504 54.5854 28.6017C52.683 26.6993 51.3877 24.2755 50.8631 21.6368C50.3385 18.9981 50.6083 16.2631 51.6384 13.7777C52.6685 11.2924 54.4126 9.16845 56.65 7.67452C58.8875 6.18059 61.5177 5.38382 64.2081 5.38501C67.815 5.38501 71.2742 6.81786 73.8247 9.36836C76.3752 11.9189 77.8081 15.3781 77.8081 18.985" fill="#FFD0CC"/>
<path d="M78.0101 18.979C78.0101 21.6689 77.2124 24.2983 75.7181 26.5348C74.2237 28.7713 72.0996 30.5144 69.6146 31.5438C67.1295 32.5731 64.395 32.8425 61.7568 32.3177C59.1187 31.7929 56.6954 30.4977 54.7934 28.5957C52.8914 26.6937 51.5961 24.2704 51.0714 21.6323C50.5466 18.9941 50.816 16.2596 51.8453 13.7745C52.8747 11.2895 54.6178 9.16543 56.8543 7.67104C59.0908 6.17665 61.7202 5.37903 64.4101 5.37903C68.017 5.37903 71.4762 6.81188 74.0267 9.36238C76.5772 11.9129 78.0101 15.3721 78.0101 18.979Z" fill="#FFD0CC"/>
<path d="M78.2171 18.979C78.2171 21.6689 77.4195 24.2983 75.9251 26.5348C74.4307 28.7713 72.3067 30.5144 69.8216 31.5438C67.3365 32.5731 64.602 32.8425 61.9639 32.3177C59.3257 31.7929 56.9024 30.4977 55.0004 28.5957C53.0985 26.6937 51.8032 24.2704 51.2784 21.6323C50.7537 18.9941 51.023 16.2596 52.0523 13.7745C53.0817 11.2895 54.8248 9.16543 57.0613 7.67104C59.2978 6.17665 61.9273 5.37903 64.6171 5.37903C68.224 5.37903 71.6833 6.81188 74.2337 9.36238C76.7842 11.9129 78.2171 15.3721 78.2171 18.979Z" fill="#FFD0CC"/>
<path d="M78.4251 18.979C78.4251 21.6689 77.6275 24.2983 76.1331 26.5348C74.6387 28.7713 72.5147 30.5144 70.0296 31.5438C67.5445 32.5731 64.81 32.8425 62.1719 32.3177C59.5337 31.7929 57.1104 30.4977 55.2084 28.5957C53.3065 26.6937 52.0112 24.2704 51.4864 21.6323C50.9617 18.9941 51.231 16.2596 52.2603 13.7745C53.2897 11.2895 55.0328 9.16543 57.2693 7.67104C59.5059 6.17665 62.1353 5.37903 64.8251 5.37903C68.432 5.37903 71.8913 6.81188 74.4418 9.36238C76.9922 11.9129 78.4251 15.3721 78.4251 18.979Z" fill="#FFD0CC"/>
<path d="M78.6321 18.979C78.6321 21.6689 77.8345 24.2983 76.3401 26.5348C74.8457 28.7713 72.7217 30.5144 70.2366 31.5438C67.7516 32.5731 65.017 32.8425 62.3789 32.3177C59.7408 31.7929 57.3175 30.4977 55.4155 28.5957C53.5135 26.6937 52.2182 24.2704 51.6935 21.6323C51.1687 18.9941 51.438 16.2596 52.4674 13.7745C53.4967 11.2895 55.2399 9.16543 57.4764 7.67104C59.7129 6.17665 62.3423 5.37903 65.0321 5.37903C68.6391 5.37903 72.0983 6.81188 74.6488 9.36238C77.1993 11.9129 78.6321 15.3721 78.6321 18.979Z" fill="#FFD0CC"/>
<path d="M78.8401 18.979C78.8401 21.6689 78.0425 24.2983 76.5481 26.5348C75.0537 28.7713 72.9297 30.5144 70.4446 31.5438C67.9596 32.5731 65.2251 32.8425 62.5869 32.3177C59.9488 31.7929 57.5255 30.4977 55.6235 28.5957C53.7215 26.6937 52.4262 24.2704 51.9015 21.6323C51.3767 18.9941 51.646 16.2596 52.6754 13.7745C53.7047 11.2895 55.4479 9.16543 57.6844 7.67104C59.9209 6.17665 62.5503 5.37903 65.2401 5.37903C68.8471 5.37903 72.3063 6.81188 74.8568 9.36238C77.4073 11.9129 78.8401 15.3721 78.8401 18.979Z" fill="#FFD0CC"/>
<path d="M79.0472 18.979C79.0484 21.6692 78.2517 24.2993 76.7579 26.5366C75.2642 28.7739 73.1405 30.518 70.6554 31.5482C68.1703 32.5785 65.4355 32.8485 62.7969 32.3243C60.1583 31.8 57.7344 30.505 55.8319 28.6031C53.9294 26.7011 52.6337 24.2777 52.1087 21.6392C51.5837 19.0008 51.8529 16.2659 52.8824 13.7805C53.9119 11.2951 55.6554 9.17088 57.8923 7.67647C60.1292 6.18206 62.759 5.38461 65.4492 5.38501C69.0561 5.38501 72.5153 6.81786 75.0658 9.36836C77.6163 11.9189 79.0492 15.3781 79.0492 18.985" fill="#FFD0CC"/>
<path d="M79.2552 18.979C79.2552 21.6689 78.4576 24.2983 76.9632 26.5348C75.4688 28.7713 73.3448 30.5144 70.8597 31.5438C68.3746 32.5731 65.6401 32.8425 63.0019 32.3177C60.3638 31.7929 57.9405 30.4977 56.0385 28.5957C54.1365 26.6937 52.8413 24.2704 52.3165 21.6323C51.7917 18.9941 52.0611 16.2596 53.0904 13.7745C54.1198 11.2895 55.8629 9.16543 58.0994 7.67104C60.3359 6.17665 62.9654 5.37903 65.6552 5.37903C69.2621 5.37903 72.7213 6.81188 75.2718 9.36238C77.8223 11.9129 79.2552 15.3721 79.2552 18.979Z" fill="#FFD0CC"/>
<path d="M79.4617 18.979C79.4617 21.6689 78.6641 24.2983 77.1697 26.5348C75.6753 28.7713 73.5513 30.5144 71.0662 31.5438C68.5811 32.5731 65.8466 32.8425 63.2085 32.3177C60.5704 31.7929 58.1471 30.4977 56.2451 28.5957C54.3431 26.6937 53.0478 24.2704 52.523 21.6323C51.9983 18.9941 52.2676 16.2596 53.297 13.7745C54.3263 11.2895 56.0695 9.16543 58.306 7.67104C60.5425 6.17665 63.1719 5.37903 65.8617 5.37903C69.4687 5.37903 72.9279 6.81188 75.4784 9.36238C78.0289 11.9129 79.4617 15.3721 79.4617 18.979Z" fill="#FFD0CC"/>
<path d="M79.6688 18.979C79.6699 21.6693 78.8732 24.2995 77.3793 26.5369C75.8854 28.7743 73.7615 30.5184 71.2763 31.5485C68.791 32.5787 66.056 32.8485 63.4174 32.3241C60.7787 31.7996 58.3549 30.5043 56.4525 28.602C54.5501 26.6998 53.2546 24.276 52.7299 21.6374C52.2052 18.9987 52.4749 16.2638 53.5049 13.7784C54.5348 11.2931 56.2787 9.16906 58.516 7.67501C60.7533 6.18096 63.3835 5.38402 66.0738 5.38501C69.6807 5.38501 73.1399 6.81786 75.6904 9.36836C78.2409 11.9189 79.6738 15.3781 79.6738 18.985" fill="#FFD0CC"/>
<path d="M79.8768 18.979C79.8768 21.6689 79.0791 24.2983 77.5848 26.5348C76.0904 28.7713 73.9663 30.5144 71.4813 31.5438C68.9962 32.5731 66.2617 32.8425 63.6235 32.3177C60.9854 31.7929 58.5621 30.4977 56.6601 28.5957C54.7581 26.6937 53.4628 24.2704 52.9381 21.6323C52.4133 18.9941 52.6827 16.2596 53.712 13.7745C54.7414 11.2895 56.4845 9.16543 58.721 7.67104C60.9575 6.17665 63.5869 5.37903 66.2768 5.37903C69.8837 5.37903 73.3429 6.81188 75.8934 9.36238C78.4439 11.9129 79.8768 15.3721 79.8768 18.979Z" fill="#FFD0CC"/>
<path d="M80.0838 18.979C80.0838 21.6689 79.2862 24.2983 77.7918 26.5348C76.2974 28.7713 74.1734 30.5144 71.6883 31.5438C69.2032 32.5731 66.4687 32.8425 63.8306 32.3177C61.1924 31.7929 58.7691 30.4977 56.8671 28.5957C54.9652 26.6937 53.6699 24.2704 53.1451 21.6323C52.6204 18.9941 52.8897 16.2596 53.919 13.7745C54.9484 11.2895 56.6915 9.16543 58.928 7.67104C61.1646 6.17665 63.794 5.37903 66.4838 5.37903C70.0907 5.37903 73.55 6.81188 76.1004 9.36238C78.6509 11.9129 80.0838 15.3721 80.0838 18.979Z" fill="#FFD0CC"/>
<path d="M80.2928 18.979C80.2928 21.6689 79.4952 24.2983 78.0008 26.5348C76.5064 28.7713 74.3823 30.5144 71.8973 31.5438C69.4122 32.5731 66.6777 32.8425 64.0396 32.3177C61.4014 31.7929 58.9781 30.4977 57.0761 28.5957C55.1741 26.6937 53.8789 24.2704 53.3541 21.6323C52.8293 18.9941 53.0987 16.2596 54.128 13.7745C55.1574 11.2895 56.9005 9.16543 59.137 7.67104C61.3735 6.17665 64.003 5.37903 66.6928 5.37903C70.2997 5.37903 73.7589 6.81188 76.3094 9.36238C78.8599 11.9129 80.2928 15.3721 80.2928 18.979Z" fill="#FFD0CC"/>
<path d="M80.4998 18.979C80.4998 21.6689 79.7022 24.2983 78.2078 26.5348C76.7134 28.7713 74.5894 30.5144 72.1043 31.5438C69.6192 32.5731 66.8847 32.8425 64.2466 32.3177C61.6084 31.7929 59.1852 30.4977 57.2832 28.5957C55.3812 26.6937 54.0859 24.2704 53.5611 21.6323C53.0364 18.9941 53.3057 16.2596 54.335 13.7745C55.3644 11.2895 57.1075 9.16543 59.3441 7.67104C61.5806 6.17665 64.21 5.37903 66.8998 5.37903C70.5068 5.37903 73.966 6.81188 76.5165 9.36238C79.067 11.9129 80.4998 15.3721 80.4998 18.979Z" fill="#FFD0CC"/>
<path d="M80.7068 18.979C80.7068 21.6689 79.9092 24.2983 78.4148 26.5348C76.9204 28.7713 74.7964 30.5144 72.3113 31.5438C69.8263 32.5731 67.0918 32.8425 64.4536 32.3177C61.8155 31.7929 59.3922 30.4977 57.4902 28.5957C55.5882 26.6937 54.2929 24.2704 53.7682 21.6323C53.2434 18.9941 53.5127 16.2596 54.5421 13.7745C55.5714 11.2895 57.3146 9.16543 59.5511 7.67104C61.7876 6.17665 64.417 5.37903 67.1068 5.37903C70.7138 5.37903 74.173 6.81188 76.7235 9.36238C79.274 11.9129 80.7068 15.3721 80.7068 18.979Z" fill="#FFD0CC"/>
<path d="M80.9148 18.979C80.9148 21.6689 80.1172 24.2983 78.6228 26.5348C77.1284 28.7713 75.0044 30.5144 72.5193 31.5438C70.0343 32.5731 67.2998 32.8425 64.6616 32.3177C62.0235 31.7929 59.6002 30.4977 57.6982 28.5957C55.7962 26.6937 54.5009 24.2704 53.9762 21.6323C53.4514 18.9941 53.7207 16.2596 54.7501 13.7745C55.7794 11.2895 57.5226 9.16543 59.7591 7.67104C61.9956 6.17665 64.625 5.37903 67.3148 5.37903C70.9218 5.37903 74.381 6.81188 76.9315 9.36238C79.482 11.9129 80.9148 15.3721 80.9148 18.979Z" fill="#FFD0CC"/>
<path d="M81.1219 18.979C81.1219 21.6689 80.3243 24.2983 78.8299 26.5348C77.3355 28.7713 75.2115 30.5144 72.7264 31.5438C70.2413 32.5731 67.5068 32.8425 64.8687 32.3177C62.2305 31.7929 59.8072 30.4977 57.9052 28.5957C56.0032 26.6937 54.708 24.2704 54.1832 21.6323C53.6584 18.9941 53.9278 16.2596 54.9571 13.7745C55.9865 11.2895 57.7296 9.16543 59.9661 7.67104C62.2026 6.17665 64.8321 5.37903 67.5219 5.37903C71.1288 5.37903 74.588 6.81188 77.1385 9.36238C79.689 11.9129 81.1219 15.3721 81.1219 18.979Z" fill="#FFD0CC"/>
<path d="M81.3299 18.979C81.3311 21.6692 80.5344 24.2993 79.0407 26.5366C77.5469 28.7739 75.4232 30.518 72.9381 31.5482C70.453 32.5785 67.7182 32.8485 65.0796 32.3243C62.441 31.8 60.0172 30.505 58.1146 28.6031C56.2121 26.7011 54.9164 24.2777 54.3914 21.6392C53.8664 19.0008 54.1356 16.2659 55.1651 13.7805C56.1946 11.2951 57.9381 9.17088 60.175 7.67647C62.4119 6.18206 65.0417 5.38461 67.7319 5.38501C71.3388 5.38501 74.798 6.81786 77.3485 9.36836C79.899 11.9189 81.3319 15.3781 81.3319 18.985" fill="#FFD0CC"/>
<path d="M81.5399 18.979C81.541 21.6691 80.7444 24.2991 79.2507 26.5364C77.7571 28.7737 75.6335 30.5178 73.1485 31.548C70.6635 32.5783 67.9288 32.8485 65.2903 32.3244C62.6518 31.8003 60.2279 30.5055 58.3253 28.6038C56.4227 26.702 55.1269 24.2788 54.6016 21.6404C54.0764 19.0021 54.3453 16.2673 55.3745 13.7819C56.4037 11.2965 58.1468 9.17209 60.3835 7.67744C62.6201 6.18279 65.2498 5.38501 67.9399 5.38501C71.5468 5.38501 75.006 6.81786 77.5565 9.36836C80.107 11.9189 81.5399 15.3781 81.5399 18.985" fill="#FFD0CC"/>
<path d="M81.7449 18.979C81.7449 21.6689 80.9473 24.2983 79.4529 26.5348C77.9585 28.7713 75.8345 30.5144 73.3494 31.5438C70.8643 32.5731 68.1298 32.8425 65.4917 32.3177C62.8536 31.7929 60.4303 30.4977 58.5283 28.5957C56.6263 26.6937 55.331 24.2704 54.8062 21.6323C54.2815 18.9941 54.5508 16.2596 55.5802 13.7745C56.6095 11.2895 58.3527 9.16543 60.5892 7.67104C62.8257 6.17665 65.4551 5.37903 68.1449 5.37903C71.7519 5.37903 75.2111 6.81188 77.7616 9.36238C80.3121 11.9129 81.7449 15.3721 81.7449 18.979Z" fill="#FFD0CC"/>
<path d="M81.952 18.979C81.952 21.6689 81.1543 24.2983 79.6599 26.5348C78.1656 28.7713 76.0415 30.5144 73.5565 31.5438C71.0714 32.5731 68.3369 32.8425 65.6987 32.3177C63.0606 31.7929 60.6373 30.4977 58.7353 28.5957C56.8333 26.6937 55.538 24.2704 55.0133 21.6323C54.4885 18.9941 54.7578 16.2596 55.7872 13.7745C56.8165 11.2895 58.5597 9.16543 60.7962 7.67104C63.0327 6.17665 65.6621 5.37903 68.352 5.37903C71.9589 5.37903 75.4181 6.81188 77.9686 9.36238C80.5191 11.9129 81.952 15.3721 81.952 18.979Z" fill="#FFD0CC"/>
<path d="M82.16 18.979C82.16 21.6689 81.3623 24.2983 79.868 26.5348C78.3736 28.7713 76.2495 30.5144 73.7645 31.5438C71.2794 32.5731 68.5449 32.8425 65.9067 32.3177C63.2686 31.7929 60.8453 30.4977 58.9433 28.5957C57.0413 26.6937 55.746 24.2704 55.2213 21.6323C54.6965 18.9941 54.9659 16.2596 55.9952 13.7745C57.0246 11.2895 58.7677 9.16543 61.0042 7.67104C63.2407 6.17665 65.8701 5.37903 68.56 5.37903C72.1669 5.37903 75.6261 6.81188 78.1766 9.36238C80.7271 11.9129 82.16 15.3721 82.16 18.979Z" fill="#FFD0CC"/>
<path d="M82.367 18.979C82.367 21.6689 81.5694 24.2983 80.075 26.5348C78.5806 28.7713 76.4566 30.5144 73.9715 31.5438C71.4864 32.5731 68.7519 32.8425 66.1138 32.3177C63.4756 31.7929 61.0523 30.4977 59.1503 28.5957C57.2484 26.6937 55.9531 24.2704 55.4283 21.6323C54.9036 18.9941 55.1729 16.2596 56.2022 13.7745C57.2316 11.2895 58.9747 9.16543 61.2112 7.67104C63.4478 6.17665 66.0772 5.37903 68.767 5.37903C72.3739 5.37903 75.8332 6.81188 78.3836 9.36238C80.9341 11.9129 82.367 15.3721 82.367 18.979Z" fill="#FFD0CC"/>
<path d="M82.575 18.979C82.575 21.6689 81.7774 24.2983 80.283 26.5348C78.7886 28.7713 76.6646 30.5144 74.1795 31.5438C71.6944 32.5731 68.9599 32.8425 66.3218 32.3177C63.6836 31.7929 61.2604 30.4977 59.3584 28.5957C57.4564 26.6937 56.1611 24.2704 55.6363 21.6323C55.1116 18.9941 55.3809 16.2596 56.4102 13.7745C57.4396 11.2895 59.1827 9.16543 61.4192 7.67104C63.6558 6.17665 66.2852 5.37903 68.975 5.37903C72.5819 5.37903 76.0412 6.81188 78.5917 9.36238C81.1422 11.9129 82.575 15.3721 82.575 18.979Z" fill="#FFD0CC"/>
<path d="M82.782 18.979C82.782 21.6689 81.9844 24.2983 80.49 26.5348C78.9956 28.7713 76.8716 30.5144 74.3865 31.5438C71.9015 32.5731 69.1669 32.8425 66.5288 32.3177C63.8907 31.7929 61.4674 30.4977 59.5654 28.5957C57.6634 26.6937 56.3681 24.2704 55.8434 21.6323C55.3186 18.9941 55.5879 16.2596 56.6173 13.7745C57.6466 11.2895 59.3898 9.16543 61.6263 7.67104C63.8628 6.17665 66.4922 5.37903 69.182 5.37903C72.789 5.37903 76.2482 6.81188 78.7987 9.36238C81.3492 11.9129 82.782 15.3721 82.782 18.979Z" fill="#FFD0CC"/>
<path d="M82.99 18.979C82.99 21.6689 82.1924 24.2983 80.698 26.5348C79.2036 28.7713 77.0796 30.5144 74.5945 31.5438C72.1095 32.5731 69.375 32.8425 66.7368 32.3177C64.0987 31.7929 61.6754 30.4977 59.7734 28.5957C57.8714 26.6937 56.5761 24.2704 56.0514 21.6323C55.5266 18.9941 55.7959 16.2596 56.8253 13.7745C57.8546 11.2895 59.5978 9.16543 61.8343 7.67104C64.0708 6.17665 66.7002 5.37903 69.39 5.37903C72.997 5.37903 76.4562 6.81188 79.0067 9.36238C81.5572 11.9129 82.99 15.3721 82.99 18.979Z" fill="#FFD0CC"/>
<path d="M83.1981 18.979C83.1981 21.6689 82.4004 24.2983 80.906 26.5348C79.4117 28.7713 77.2876 30.5144 74.8025 31.5438C72.3175 32.5731 69.583 32.8425 66.9448 32.3177C64.3067 31.7929 61.8834 30.4977 59.9814 28.5957C58.0794 26.6937 56.7841 24.2704 56.2594 21.6323C55.7346 18.9941 56.0039 16.2596 57.0333 13.7745C58.0626 11.2895 59.8058 9.16543 62.0423 7.67104C64.2788 6.17665 66.9082 5.37903 69.5981 5.37903C73.205 5.37903 76.6642 6.81188 79.2147 9.36238C81.7652 11.9129 83.1981 15.3721 83.1981 18.979Z" fill="#FFD0CC"/>
<path d="M83.4061 18.979C83.4072 21.6691 82.6106 24.2991 81.117 26.5364C79.6233 28.7737 77.4997 30.5178 75.0147 31.548C72.5297 32.5783 69.795 32.8485 67.1565 32.3244C64.518 31.8003 62.0941 30.5055 60.1915 28.6038C58.2889 26.702 56.9931 24.2788 56.4678 21.6404C55.9426 19.0021 56.2115 16.2673 57.2407 13.7819C58.2699 11.2965 60.013 9.17209 62.2497 7.67744C64.4863 6.18279 67.116 5.38501 69.8061 5.38501C73.413 5.38501 76.8722 6.81786 79.4227 9.36836C81.9732 11.9189 83.4061 15.3781 83.4061 18.985" fill="#FFD0CC"/>
<path d="M83.6131 18.979C83.6143 21.6692 82.8176 24.2993 81.3239 26.5366C79.8301 28.7739 77.7064 30.518 75.2213 31.5482C72.7362 32.5785 70.0014 32.8485 67.3628 32.3243C64.7242 31.8 62.3004 30.505 60.3979 28.6031C58.4953 26.7011 57.1996 24.2777 56.6746 21.6392C56.1496 19.0008 56.4188 16.2659 57.4483 13.7805C58.4778 11.2951 60.2213 9.17088 62.4582 7.67647C64.6951 6.18206 67.3249 5.38461 70.0151 5.38501C73.622 5.38501 77.0813 6.81786 79.6317 9.36836C82.1822 11.9189 83.6151 15.3781 83.6151 18.985" fill="#FFD0CC"/>
<path d="M83.8201 18.979C83.8201 21.6689 83.0225 24.2983 81.5281 26.5348C80.0337 28.7713 77.9097 30.5144 75.4246 31.5438C72.9395 32.5731 70.205 32.8425 67.5669 32.3177C64.9287 31.7929 62.5055 30.4977 60.6035 28.5957C58.7015 26.6937 57.4062 24.2704 56.8814 21.6323C56.3567 18.9941 56.626 16.2596 57.6554 13.7745C58.6847 11.2895 60.4279 9.16543 62.6644 7.67104C64.9009 6.17665 67.5303 5.37903 70.2201 5.37903C73.8271 5.37903 77.2863 6.81188 79.8368 9.36238C82.3873 11.9129 83.8201 15.3721 83.8201 18.979Z" fill="#FFD0CC"/>
<path d="M84.0281 18.979C84.0281 21.6689 83.2305 24.2983 81.7361 26.5348C80.2417 28.7713 78.1177 30.5144 75.6326 31.5438C73.1476 32.5731 70.413 32.8425 67.7749 32.3177C65.1368 31.7929 62.7135 30.4977 60.8115 28.5957C58.9095 26.6937 57.6142 24.2704 57.0895 21.6323C56.5647 18.9941 56.834 16.2596 57.8634 13.7745C58.8927 11.2895 60.6359 9.16543 62.8724 7.67104C65.1089 6.17665 67.7383 5.37903 70.4281 5.37903C74.0351 5.37903 77.4943 6.81188 80.0448 9.36238C82.5953 11.9129 84.0281 15.3721 84.0281 18.979Z" fill="#FFD0CC"/>
<path d="M84.2352 18.979C84.2352 21.6689 83.4375 24.2983 81.9431 26.5348C80.4488 28.7713 78.3247 30.5144 75.8396 31.5438C73.3546 32.5731 70.6201 32.8425 67.9819 32.3177C65.3438 31.7929 62.9205 30.4977 61.0185 28.5957C59.1165 26.6937 57.8212 24.2704 57.2965 21.6323C56.7717 18.9941 57.041 16.2596 58.0704 13.7745C59.0998 11.2895 60.8429 9.16543 63.0794 7.67104C65.3159 6.17665 67.9453 5.37903 70.6352 5.37903C74.2421 5.37903 77.7013 6.81188 80.2518 9.36238C82.8023 11.9129 84.2352 15.3721 84.2352 18.979Z" fill="#FFD0CC"/>
<path d="M84.4422 18.979C84.4422 21.6689 83.6446 24.2983 82.1502 26.5348C80.6558 28.7713 78.5318 30.5144 76.0467 31.5438C73.5616 32.5731 70.8271 32.8425 68.189 32.3177C65.5508 31.7929 63.1275 30.4977 61.2255 28.5957C59.3236 26.6937 58.0283 24.2704 57.5035 21.6323C56.9788 18.9941 57.2481 16.2596 58.2774 13.7745C59.3068 11.2895 61.0499 9.16543 63.2864 7.67104C65.523 6.17665 68.1524 5.37903 70.8422 5.37903C74.4491 5.37903 77.9084 6.81188 80.4589 9.36238C83.0093 11.9129 84.4422 15.3721 84.4422 18.979Z" fill="#FFD0CC"/>
<path d="M84.6502 18.979C84.6502 21.6689 83.8526 24.2983 82.3582 26.5348C80.8638 28.7713 78.7398 30.5144 76.2547 31.5438C73.7696 32.5731 71.0351 32.8425 68.397 32.3177C65.7588 31.7929 63.3355 30.4977 61.4336 28.5957C59.5316 26.6937 58.2363 24.2704 57.7115 21.6323C57.1868 18.9941 57.4561 16.2596 58.4854 13.7745C59.5148 11.2895 61.2579 9.16543 63.4945 7.67104C65.731 6.17665 68.3604 5.37903 71.0502 5.37903C74.6571 5.37903 78.1164 6.81188 80.6669 9.36238C83.2173 11.9129 84.6502 15.3721 84.6502 18.979Z" fill="#FFD0CC"/>
<path d="M84.8567 18.979C84.8567 21.6689 84.0591 24.2983 82.5647 26.5348C81.0703 28.7713 78.9463 30.5144 76.4612 31.5438C73.9762 32.5731 71.2417 32.8425 68.6035 32.3177C65.9654 31.7929 63.5421 30.4977 61.6401 28.5957C59.7381 26.6937 58.4428 24.2704 57.9181 21.6323C57.3933 18.9941 57.6626 16.2596 58.692 13.7745C59.7213 11.2895 61.4645 9.16543 63.701 7.67104C65.9375 6.17665 68.5669 5.37903 71.2567 5.37903C74.8637 5.37903 78.3229 6.81188 80.8734 9.36238C83.4239 11.9129 84.8567 15.3721 84.8567 18.979Z" fill="#FFD0CC"/>
<path d="M85.0647 18.979C85.0647 21.6689 84.2671 24.2983 82.7727 26.5348C81.2784 28.7713 79.1543 30.5144 76.6692 31.5438C74.1842 32.5731 71.4497 32.8425 68.8115 32.3177C66.1734 31.7929 63.7501 30.4977 61.8481 28.5957C59.9461 26.6937 58.6508 24.2704 58.1261 21.6323C57.6013 18.9941 57.8706 16.2596 58.9 13.7745C59.9293 11.2895 61.6725 9.16543 63.909 7.67104C66.1455 6.17665 68.7749 5.37903 71.4647 5.37903C75.0717 5.37903 78.5309 6.81188 81.0814 9.36238C83.6319 11.9129 85.0647 15.3721 85.0647 18.979Z" fill="#FFD0CC"/>
<path d="M85.2718 18.979C85.273 21.6691 84.4764 24.2991 82.9827 26.5364C81.489 28.7737 79.3654 30.5178 76.8804 31.548C74.3955 32.5783 71.6608 32.8485 69.0222 32.3244C66.3837 31.8003 63.9598 30.5055 62.0573 28.6038C60.1547 26.702 58.8588 24.2788 58.3335 21.6404C57.8083 19.0021 58.0773 16.2673 59.1064 13.7819C60.1356 11.2965 61.8788 9.17209 64.1154 7.67744C66.352 6.18279 68.9817 5.38501 71.6718 5.38501C75.2787 5.38501 78.7379 6.81786 81.2884 9.36836C83.8389 11.9189 85.2718 15.3781 85.2718 18.985" fill="#FFD0CC"/>
<path d="M85.4798 18.979C85.4798 21.6689 84.6822 24.2983 83.1878 26.5348C81.6934 28.7713 79.5694 30.5144 77.0843 31.5438C74.5992 32.5731 71.8647 32.8425 69.2266 32.3177C66.5884 31.7929 64.1651 30.4977 62.2631 28.5957C60.3611 26.6937 59.0659 24.2704 58.5411 21.6323C58.0164 18.9941 58.2857 16.2596 59.315 13.7745C60.3444 11.2895 62.0875 9.16543 64.324 7.67104C66.5605 6.17665 69.19 5.37903 71.8798 5.37903C75.4867 5.37903 78.946 6.81188 81.4964 9.36238C84.0469 11.9129 85.4798 15.3721 85.4798 18.979Z" fill="#FFD0CC"/>
<path d="M85.6878 18.979C85.6878 21.6689 84.8902 24.2983 83.3958 26.5348C81.9014 28.7713 79.7774 30.5144 77.2923 31.5438C74.8072 32.5731 72.0727 32.8425 69.4346 32.3177C66.7964 31.7929 64.3731 30.4977 62.4711 28.5957C60.5692 26.6937 59.2739 24.2704 58.7491 21.6323C58.2244 18.9941 58.4937 16.2596 59.523 13.7745C60.5524 11.2895 62.2955 9.16543 64.532 7.67104C66.7686 6.17665 69.398 5.37903 72.0878 5.37903C75.6947 5.37903 79.154 6.81188 81.7045 9.36238C84.255 11.9129 85.6878 15.3721 85.6878 18.979Z" fill="#FFD0CC"/>
<path d="M85.8948 18.979C85.896 21.6692 85.0993 24.2993 83.6056 26.5366C82.1118 28.7739 79.9881 30.518 77.503 31.5482C75.0179 32.5785 72.2831 32.8485 69.6445 32.3243C67.0059 31.8 64.5821 30.505 62.6796 28.6031C60.7771 26.7011 59.4814 24.2777 58.9563 21.6392C58.4313 19.0008 58.7006 16.2659 59.7301 13.7805C60.7595 11.2951 62.503 9.17088 64.7399 7.67647C66.9768 6.18206 69.6067 5.38461 72.2968 5.38501C74.0828 5.38501 75.8513 5.73678 77.5013 6.42025C79.1513 7.10371 80.6506 8.10548 81.9135 9.36836C83.1764 10.6312 84.1781 12.1305 84.8616 13.7805C85.5451 15.4305 85.8968 17.199 85.8968 18.985" fill="#FFD0CC"/>
<path d="M86.1028 18.979C86.1028 21.6689 85.3052 24.2983 83.8108 26.5348C82.3164 28.7713 80.1924 30.5144 77.7073 31.5438C75.2223 32.5731 72.4877 32.8425 69.8496 32.3177C67.2115 31.7929 64.7882 30.4977 62.8862 28.5957C60.9842 26.6937 59.6889 24.2704 59.1642 21.6323C58.6394 18.9941 58.9087 16.2596 59.9381 13.7745C60.9674 11.2895 62.7106 9.16543 64.9471 7.67104C67.1836 6.17665 69.813 5.37903 72.5028 5.37903C76.1098 5.37903 79.569 6.81188 82.1195 9.36238C84.67 11.9129 86.1028 15.3721 86.1028 18.979Z" fill="#FFD0CC"/>
<path d="M140.137 18.991C140.137 12.581 144.837 7.87903 151.504 7.87903C158.171 7.87903 162.786 12.579 162.786 18.991C162.786 19.3889 162.628 19.7704 162.346 20.0517C162.065 20.333 161.684 20.491 161.286 20.491H145.385C145.265 20.4903 145.146 20.5173 145.038 20.5699C144.93 20.6226 144.836 20.6994 144.763 20.7944C144.689 20.8894 144.639 21.0001 144.615 21.1178C144.592 21.2355 144.596 21.3571 144.627 21.473C145.527 24.614 148.162 26.346 151.504 26.346C154.044 26.346 155.884 25.609 157.126 24.032C157.213 23.9166 157.325 23.8225 157.454 23.7568C157.583 23.6911 157.725 23.6557 157.87 23.653H161.259C161.327 23.6524 161.394 23.6689 161.454 23.7012C161.514 23.7335 161.565 23.7805 161.603 23.8377C161.64 23.895 161.662 23.9607 161.667 24.0288C161.672 24.0968 161.659 24.165 161.631 24.227C159.881 27.827 156.175 30.106 151.504 30.106C144.837 30.106 140.137 25.406 140.137 18.994M157.437 16.857C157.566 16.8563 157.693 16.8237 157.807 16.762C157.921 16.7004 158.018 16.6117 158.089 16.5037C158.16 16.3957 158.204 16.2718 158.216 16.143C158.228 16.0141 158.208 15.8843 158.158 15.765C157.606 14.4775 156.671 13.3912 155.48 12.6537C154.289 11.9162 152.899 11.5634 151.501 11.643C150.106 11.558 148.72 11.9095 147.534 12.6487C146.348 13.388 145.422 14.4783 144.885 15.768C144.835 15.8872 144.816 16.0168 144.828 16.1453C144.84 16.2738 144.884 16.3973 144.956 16.5049C145.027 16.6125 145.124 16.7009 145.237 16.7623C145.351 16.8237 145.478 16.8562 145.607 16.857H157.437Z" fill="#3D3D3D"/>
<path d="M100.261 10.969C100.26 11.1647 100.186 11.353 100.053 11.4967C99.9199 11.6404 99.7379 11.729 99.5428 11.745C96.8348 11.985 95.0878 13.651 95.0878 17.324V29.297C95.0879 29.3997 95.0678 29.5015 95.0285 29.5964C94.9893 29.6913 94.9317 29.7776 94.8591 29.8502C94.7864 29.9229 94.7002 29.9805 94.6052 30.0197C94.5103 30.059 94.4085 30.0791 94.3058 30.079H91.7058C91.6032 30.079 91.5015 30.0588 91.4067 30.0194C91.3119 29.9801 91.2257 29.9225 91.1532 29.8499C91.0807 29.7773 91.0232 29.691 90.984 29.5962C90.9448 29.5013 90.9247 29.3996 90.9248 29.297V17.324C90.9248 11.252 94.3178 8.17899 99.4248 7.88099C99.532 7.87403 99.6395 7.88907 99.7406 7.92516C99.8418 7.96126 99.9345 8.01766 100.013 8.0909C100.092 8.16413 100.154 8.25266 100.198 8.35104C100.241 8.44942 100.263 8.55558 100.264 8.66299L100.261 10.969Z" fill="#3D3D3D"/>
<path d="M33.14 12.924C33.14 10.27 32.905 7.87903 30.251 7.87903C28.951 7.87903 28.975 8.64303 28.975 9.84403V20.414C28.975 24.447 26.827 26.244 23.803 26.244C20.866 26.244 18.675 24.36 18.675 20.414V12.924C18.675 10.27 18.441 7.87903 15.786 7.87903C14.486 7.87903 14.512 8.64303 14.512 9.84403V20.414C14.512 24.359 12.277 26.244 9.33996 26.244C6.31496 26.244 4.16696 24.444 4.16696 20.414V12.923C4.16696 10.269 3.93196 7.87903 1.27896 7.87903C-0.0210398 7.87903 0.00296012 8.64203 0.00296012 9.84403V20.415C-3.9882e-05 27.033 3.85796 30.103 8.94196 30.103C10.4884 30.1734 12.0235 29.8076 13.3719 29.0472C14.7204 28.2869 15.8279 27.1627 16.568 25.803C17.3043 27.1672 18.4119 28.295 19.7625 29.056C21.1132 29.8169 22.6516 30.18 24.2 30.103C29.284 30.103 33.141 27.034 33.141 20.416L33.14 12.924Z" fill="#3D3D3D"/>
<path d="M115.829 7.87897C113.276 7.8762 110.801 8.75626 108.823 10.37C108.716 9.67587 108.363 9.04319 107.83 8.58646C107.296 8.12972 106.616 7.8791 105.914 7.87997C104.68 7.90697 104.706 8.66397 104.706 9.84497V37.199C104.706 37.3017 104.726 37.4035 104.765 37.4984C104.805 37.5933 104.862 37.6796 104.935 37.7522C105.007 37.8249 105.094 37.8825 105.189 37.9217C105.284 37.961 105.385 37.9811 105.488 37.981H108.088C108.296 37.981 108.494 37.8986 108.641 37.7519C108.788 37.6053 108.87 37.4064 108.87 37.199V27.645C110.254 28.7581 111.885 29.523 113.626 29.8757C115.367 30.2284 117.167 30.1586 118.875 29.6721C120.583 29.1855 122.15 28.2965 123.444 27.0794C124.737 25.8624 125.72 24.353 126.31 22.6776C126.9 21.0023 127.08 19.2099 126.834 17.4508C126.588 15.6917 125.924 14.0172 124.898 12.5677C123.871 11.1182 122.512 9.93594 120.934 9.12012C119.357 8.30431 117.606 7.87869 115.83 7.87897M115.83 25.913C114.461 25.913 113.123 25.507 111.984 24.7464C110.846 23.9858 109.959 22.9047 109.435 21.6399C108.911 20.3751 108.774 18.9833 109.041 17.6406C109.308 16.2978 109.967 15.0644 110.936 14.0964C111.904 13.1283 113.137 12.4691 114.48 12.202C115.822 11.9349 117.214 12.072 118.479 12.5959C119.744 13.1198 120.825 14.007 121.586 15.1453C122.346 16.2836 122.752 17.6219 122.752 18.991C122.752 20.8268 122.023 22.5874 120.725 23.8856C119.427 25.1837 117.666 25.913 115.83 25.913Z" fill="#3D3D3D"/>
<path d="M135.412 29.32V3C135.417 2.60838 135.344 2.21967 135.198 1.85636C135.052 1.49305 134.835 1.16235 134.56 0.88337C134.285 0.604392 133.958 0.382679 133.596 0.231053C133.235 0.0794261 132.848 0.000894715 132.456 0C131.223 0.026 131.248 0.784 131.248 1.964V29.32C131.248 29.5274 131.33 29.7263 131.477 29.873C131.624 30.0196 131.823 30.102 132.03 30.102H134.63C134.837 30.102 135.036 30.0196 135.183 29.873C135.33 29.7263 135.412 29.5274 135.412 29.32Z" fill="#3D3D3D"/>
<path d="M84.1118 28.91L82.3278 24.403C83.6558 22.0279 84.0684 19.2489 83.4877 16.5905C82.907 13.932 81.3732 11.5782 79.1759 9.97314C76.9785 8.36813 74.2696 7.62303 71.5606 7.8785C68.8515 8.13398 66.3296 9.37235 64.4711 11.3598C62.6125 13.3473 61.5458 15.9465 61.4723 18.6666C61.3989 21.3867 62.3237 24.0396 64.0723 26.1245C65.8208 28.2095 68.2722 29.5822 70.9635 29.9835C73.6549 30.3848 76.4 29.787 78.6808 28.303L83.0118 30.016C83.1655 30.0761 83.3334 30.0902 83.495 30.0564C83.6566 30.0226 83.8048 29.9424 83.9215 29.8257C84.0382 29.709 84.1184 29.5608 84.1522 29.3992C84.186 29.2376 84.172 29.0697 84.1118 28.916" fill="#1A35C9"/>
<path d="M77.315 18.99C77.315 19.9174 77.04 20.824 76.5248 21.5951C76.0095 22.3662 75.2772 22.9672 74.4204 23.3221C73.5636 23.677 72.6208 23.7699 71.7112 23.5889C70.8017 23.408 69.9662 22.9614 69.3104 22.3056C68.6546 21.6499 68.208 20.8144 68.0271 19.9048C67.8462 18.9952 67.939 18.0524 68.2939 17.1956C68.6488 16.3388 69.2498 15.6065 70.0209 15.0913C70.792 14.576 71.6986 14.301 72.626 14.301C73.8696 14.301 75.0623 14.795 75.9416 15.6744C76.821 16.5538 77.315 17.7464 77.315 18.99Z" fill="white"/>
</g>
</svg>
