<svg width="359" height="54" viewBox="0 0 359 54" fill="none" xmlns="http://www.w3.org/2000/svg">
<path d="M332 0H27C12.0883 0 0 12.0883 0 27C0 41.9117 12.0883 54 27 54H332C346.912 54 359 41.9117 359 27C359 12.0883 346.912 0 332 0Z" fill="#1A35C9"/>
<path d="M332 0.5H27C12.3645 0.5 0.5 12.3645 0.5 27C0.5 41.6355 12.3645 53.5 27 53.5H332C346.636 53.5 358.5 41.6355 358.5 27C358.5 12.3645 346.636 0.5 332 0.5Z" stroke="white"/>
<path d="M338 36C342.971 36 347 31.9706 347 27C347 22.0294 342.971 18 338 18C333.029 18 329 22.0294 329 27C329 31.9706 333.029 36 338 36Z" fill="white"/>
<path d="M332.258 28.4252H343.25L339.514 24.6888V28.7328" stroke="#1A35C9"/>
<path d="M37.024 17.6949C37.984 17.7189 38.896 17.7429 39.544 17.7429C41.296 17.7429 51.04 17.7429 52.768 17.7429C53.368 17.7429 54.256 17.7429 55.144 17.7189C55.096 18.4389 55.096 19.3029 55.096 20.0469C55.096 21.5109 55.096 30.3429 55.096 31.8069C55.096 32.7429 55.12 35.0469 55.144 35.1429H51.808C51.808 35.0469 51.88 33.1749 51.88 31.8549C51.88 30.4629 51.88 20.8149 51.88 20.8149H40.264C40.264 20.8149 40.264 30.4389 40.264 31.8549C40.264 33.0069 40.288 35.0229 40.288 35.1429H37C37 35.0229 37.048 32.9109 37.048 31.7589C37.048 30.3189 37.048 21.4389 37.048 20.0469C37.048 19.3509 37.048 18.3909 37.024 17.6949ZM53.056 30.7749V33.8229H38.632V30.7749H53.056ZM76.696 15.0549C77.296 15.9429 78.136 17.4549 78.592 18.3429L76.672 19.1829C76.168 18.1989 75.424 16.7589 74.776 15.8469L76.696 15.0549ZM79.528 13.9749C80.152 14.8869 81.04 16.3989 81.472 17.2389L79.552 18.0549C79.048 17.0709 78.28 15.6549 77.632 14.7669L79.528 13.9749ZM78.832 20.3349C78.568 20.8149 78.232 21.4629 78.04 22.0629C77.392 24.1989 76.024 27.4149 73.864 30.0789C71.584 32.8629 68.68 35.0709 64.168 36.8469L61.336 34.3269C66.256 32.8389 68.92 30.7509 71.008 28.3749C72.64 26.5029 74.032 23.6229 74.416 21.8469H66.328L67.432 19.1109C68.512 19.1109 73.528 19.1109 74.296 19.1109C75.04 19.1109 75.832 19.0149 76.384 18.8229L78.832 20.3349ZM71.008 16.5429C70.456 17.3829 69.832 18.4869 69.544 18.9909C67.936 21.8949 65.056 25.2789 61.624 27.6309L58.912 25.6389C63.136 23.0709 65.224 19.9749 66.424 17.9109C66.784 17.3349 67.288 16.2069 67.504 15.3909L71.008 16.5429ZM83.488 25.3989C87.784 24.2949 91.288 22.7349 93.976 21.0789C96.424 19.5669 99.16 17.1669 100.72 15.2709L103.312 17.7189C101.128 19.9269 98.2 22.1829 95.368 23.8869C92.656 25.4949 88.768 27.2949 84.976 28.4229L83.488 25.3989ZM93.472 22.6389L96.88 21.8229V32.6469C96.88 33.7029 96.928 35.1909 97.096 35.7909H93.28C93.376 35.2149 93.472 33.7029 93.472 32.6469V22.6389ZM111.784 16.4709C113.44 17.5989 116.56 20.0949 117.976 21.5589L115.528 24.0549C114.28 22.7109 111.256 20.0949 109.504 18.8949L111.784 16.4709ZM108.76 32.4549C112.528 31.9269 115.624 30.7029 117.952 29.3349C122.056 26.8869 125.176 23.2389 126.712 19.9989L128.56 23.3589C126.76 26.6229 123.568 29.9349 119.704 32.2629C117.256 33.7269 114.16 35.0469 110.8 35.6229L108.76 32.4549ZM142 22.5429C143.68 22.5429 145.048 23.9109 145.048 25.5909C145.048 27.2949 143.68 28.6629 142 28.6629C140.296 28.6629 138.928 27.2949 138.928 25.5909C138.928 23.9109 140.296 22.5429 142 22.5429ZM168.28 22.2789H177.232V24.9429H168.28V22.2789ZM155.272 16.7109H166.072V19.0629H155.272V16.7109ZM155.032 26.2629H166.048V28.6869H155.032V26.2629ZM154.96 22.0629H166.264V24.4389H154.96V22.0629ZM172.168 23.4309H174.952V36.7509H172.168V23.4309ZM159.28 14.5269H162.088V17.7669H159.28V14.5269ZM159.28 24.2949H162.088V36.8469H159.28V24.2949ZM166.984 16.2309L170.344 17.1669C170.32 17.4069 170.152 17.5269 169.72 17.5989V24.6549C169.72 28.2309 169.264 33.5349 166 36.9189C165.64 36.2949 164.584 35.3109 163.936 34.9509C166.72 31.9989 166.984 27.8949 166.984 24.6069V16.2309ZM174.832 14.5749L177.136 16.6629C174.688 17.7669 171.424 18.5829 168.616 19.1109C168.472 18.4869 168.064 17.4789 167.728 16.9269C170.296 16.3509 173.128 15.4869 174.832 14.5749ZM161.872 28.7829C162.616 29.2389 164.92 31.0389 165.496 31.5189L163.84 33.5829C163.048 32.6229 161.224 30.8229 160.336 30.0309L161.872 28.7829ZM156.472 19.4229L158.68 18.8949C159.112 19.7589 159.448 20.9349 159.568 21.7269L157.216 22.3509C157.168 21.5589 156.856 20.3349 156.472 19.4229ZM162.448 18.8469L164.992 19.3269C164.536 20.4309 164.128 21.4629 163.768 22.2069L161.488 21.7269C161.824 20.9109 162.232 19.6869 162.448 18.8469ZM159.304 27.6789L161.344 28.4229C160.168 31.0629 158.176 33.8229 156.256 35.3829C155.8 34.7589 154.96 33.7989 154.36 33.3429C156.256 32.1189 158.248 29.7909 159.304 27.6789ZM179.32 18.0309H188.128V20.5509H179.32V18.0309ZM178.912 23.5989H188.512V26.1909H178.912V23.5989ZM182.416 14.5749H185.128V23.2389C185.128 27.7269 184.576 33.2709 180.544 36.5829C180.16 35.9829 179.248 34.9989 178.6 34.4949C182.176 31.8789 182.416 26.8869 182.416 23.2389V14.5749ZM184.744 26.5989C185.56 27.3429 188.248 30.4389 188.848 31.1589L186.904 33.2469C186.016 31.7829 184 29.1429 182.968 27.9429L184.744 26.5989ZM191.92 21.4149V22.8069H197.176V21.4149H191.92ZM191.92 25.0869V26.5029H197.176V25.0869H191.92ZM191.92 17.7189V19.1109H197.176V17.7189H191.92ZM189.256 15.1749H199.936V29.0469H189.256V15.1749ZM194.704 28.1589H197.392V33.1749C197.392 33.8469 197.416 33.9189 197.776 33.9189C197.92 33.9189 198.448 33.9189 198.616 33.9189C199 33.9189 199.072 33.5829 199.144 31.0389C199.648 31.4709 200.8 31.9029 201.496 32.0949C201.256 35.5269 200.608 36.3909 198.904 36.3909C198.496 36.3909 197.704 36.3909 197.296 36.3909C195.16 36.3909 194.704 35.5749 194.704 33.2229V28.1589ZM190.816 28.6389H193.528C193.144 32.3829 192.16 35.2389 187.744 36.8949C187.456 36.2469 186.736 35.2389 186.184 34.7349C189.904 33.5109 190.528 31.3989 190.816 28.6389ZM204.208 33.3429C208.504 33.2229 215.176 32.9829 221.224 32.7189L221.128 35.3589C215.248 35.6949 208.912 35.9829 204.592 36.1509L204.208 33.3429ZM204.088 26.1909H224.056V28.8789H204.088V26.1909ZM208.36 21.5829H219.616V24.2229H208.36V21.5829ZM209.968 27.9429L213.256 28.8549C212.128 31.1109 210.832 33.6069 209.752 35.2149L207.232 34.3749C208.216 32.6229 209.368 29.9589 209.968 27.9429ZM215.92 30.4149L218.464 29.0949C220.624 30.9429 222.856 33.4629 223.96 35.2869L221.296 36.8949C220.288 35.0709 217.984 32.3349 215.92 30.4149ZM213.976 17.1429C212.032 19.8789 208.288 22.9509 204.304 24.8469C203.968 24.1509 203.2 23.0709 202.6 22.4469C206.704 20.6469 210.544 17.2149 212.32 14.3829H215.368C217.912 17.9109 221.728 20.6469 225.544 22.0149C224.848 22.7349 224.2 23.7669 223.672 24.6309C220.072 22.9509 216.016 19.9269 213.976 17.1429ZM233.152 17.3349V18.8709H242.896V17.3349H233.152ZM230.272 15.1029H245.968V21.1269H230.272V15.1029ZM232.048 26.8389V27.8469H243.832V26.8389H232.048ZM232.048 29.6949V30.7269H243.832V29.6949H232.048ZM232.048 23.9829V24.9909H243.832V23.9829H232.048ZM229.168 22.0149H246.832V32.6709H229.168V22.0149ZM233.824 32.1909L236.392 33.9909C234.472 35.1189 231.352 36.2949 228.904 36.8709C228.376 36.2709 227.416 35.3589 226.72 34.8069C229.24 34.2549 232.312 33.1269 233.824 32.1909ZM239.104 34.1349L241.624 32.3109C244.168 32.9829 247.384 34.1109 249.376 34.8789L246.856 36.9189C244.984 36.0549 241.672 34.8549 239.104 34.1349ZM257.584 20.7429H266.464V23.1429H257.584V20.7429ZM251.68 34.0389H272.416V36.3909H251.68V34.0389ZM253.072 15.2229H259.792V17.5509H253.072V15.2229ZM258.88 15.2229H259.36L259.864 15.1029L261.736 16.0389C259.96 20.7429 256.168 24.1749 252.136 26.1189C251.752 25.5189 250.984 24.5349 250.408 24.0309C253.984 22.5189 257.56 19.2549 258.88 15.7029V15.2229ZM264.352 14.4069C266.008 18.3189 269.368 21.7989 273.544 23.3829C272.872 23.9589 272.032 25.0389 271.6 25.7829C267.184 23.7669 263.896 19.9269 261.904 15.1749L264.352 14.4069ZM251.92 19.5429L253.456 17.9589C254.536 18.5589 255.856 19.4949 256.48 20.2149L254.872 21.9669C254.248 21.2469 252.952 20.2149 251.92 19.5429ZM268.048 14.5509L270.208 16.0869C268.888 17.2149 267.328 18.3909 266.128 19.1589L264.4 17.8149C265.552 16.9989 267.136 15.6069 268.048 14.5509ZM270.76 17.3589L272.872 18.8469C271.504 20.0469 269.848 21.2949 268.576 22.0869L266.848 20.7429C268.096 19.8789 269.776 18.4629 270.76 17.3589ZM257.8 26.8149V28.9269H266.008V26.8149H257.8ZM254.992 24.5109H268.984V31.2069H254.992V24.5109ZM256.384 31.5189L259.024 30.8469C259.648 31.7109 260.176 32.9349 260.392 33.7509L257.632 34.5429C257.464 33.7269 256.936 32.4549 256.384 31.5189ZM264.952 30.8229L267.736 31.4229C267.136 32.5989 266.584 33.6789 266.104 34.4469L263.584 33.8709C264.064 33.0309 264.664 31.7349 264.952 30.8229ZM295.024 25.1349L297.28 26.5029C296.272 27.6069 295.216 28.7589 294.352 29.5269L292.552 28.3269C293.344 27.4869 294.424 26.1189 295.024 25.1349ZM284.344 26.6949L286.216 25.4709C287.2 26.3589 288.256 27.6069 288.712 28.5189L286.696 29.8629C286.312 28.9509 285.28 27.6309 284.344 26.6949ZM285.376 15.1509H295.288V23.5749H292.624V17.5029H285.376V15.1509ZM285.904 18.7749H294.136V20.9829H285.904V18.7749ZM284.224 22.2069H297.088V24.6549H284.224V22.2069ZM289.168 23.4549H291.832V34.1589C291.832 35.3349 291.688 36.0309 290.92 36.4389C290.2 36.8469 289.24 36.8709 287.92 36.8709C287.848 36.1509 287.536 35.1189 287.224 34.3989C287.896 34.4229 288.616 34.4229 288.856 34.4229C289.096 34.4229 289.168 34.3509 289.168 34.0869V23.4549ZM283.528 32.9349C284.752 32.2389 286.552 31.1109 288.328 29.9589L289.192 32.1189C287.776 33.1989 286.216 34.3269 284.848 35.2389L283.528 32.9349ZM291.76 25.1589C292.528 28.0149 294.352 31.5909 297.64 33.2709C297.064 33.7749 296.2 34.9029 295.792 35.6229C292.648 33.6069 290.92 29.4789 290.176 26.6949L291.76 25.1589ZM276.4 20.3109H283.504V22.7109H276.4V20.3109ZM275.248 24.4629H284.008V26.9109H275.248V24.4629ZM275.488 28.2549L277.312 27.7989C277.72 29.1429 278.056 30.8229 278.176 31.9749L276.232 32.4789C276.184 31.3269 275.848 29.5989 275.488 28.2549ZM274.984 33.7509C277.264 33.4149 280.672 32.7909 283.912 32.2149L284.128 34.5909C281.128 35.2149 277.96 35.8869 275.536 36.3669L274.984 33.7509ZM282.136 27.6069L284.2 28.1109C283.768 29.4789 283.384 30.9909 283.024 31.9989L281.296 31.5189C281.608 30.4389 281.968 28.7589 282.136 27.6069ZM278.536 21.2709H281.008V34.2069L278.536 34.6389V21.2709ZM278.416 14.3349H279.928V14.8629H280.744V15.6069C279.808 17.4309 278.344 19.9029 275.968 22.0629C275.584 21.4869 274.768 20.5749 274.24 20.1909C276.256 18.4629 277.672 16.2069 278.416 14.3349ZM278.776 14.3349H280.792C282.184 15.5349 283.96 17.2629 284.824 18.4869L282.976 20.6949C282.208 19.4709 280.576 17.4549 279.28 16.3749H278.776V14.3349Z" fill="white"/>
</svg>
